<?xml version="1.0" encoding="UTF-8" standalone="no"?>
<!DOCTYPE svg PUBLIC "-//W3C//DTD SVG 1.1//EN"
 "http://www.w3.org/Graphics/SVG/1.1/DTD/svg11.dtd">
<!-- Generated by graphviz version 2.43.0 (0)
 -->
<!-- Title: snakemake_dag Pages: 1 -->
<svg width="3918pt" height="121pt"
 viewBox="0.00 0.00 3918.00 121.00" xmlns="http://www.w3.org/2000/svg" xmlns:xlink="http://www.w3.org/1999/xlink">
<g id="graph0" class="graph" transform="scale(1 1) rotate(0) translate(4 117)">
<title>snakemake_dag</title>
<polygon fill="white" stroke="transparent" points="-4,4 -4,-117 3914,-117 3914,4 -4,4"/>
<!-- 0 -->
<g id="node1" class="node">
<title>0</title>
<path fill="none" stroke="#afd856" stroke-width="2" stroke-dasharray="5,2" d="M2069.5,-36C2069.5,-36 1867.5,-36 1867.5,-36 1861.5,-36 1855.5,-30 1855.5,-24 1855.5,-24 1855.5,-12 1855.5,-12 1855.5,-6 1861.5,0 1867.5,0 1867.5,0 2069.5,0 2069.5,0 2075.5,0 2081.5,-6 2081.5,-12 2081.5,-12 2081.5,-24 2081.5,-24 2081.5,-30 2075.5,-36 2069.5,-36"/>
<text text-anchor="middle" x="1968.5" y="-15.5" font-family="sans" font-size="10.00">merge_annotated_proteins_metadata_tsvs</text>
</g>
<!-- 1 -->
<g id="node2" class="node">
<title>1</title>
<path fill="none" stroke="#d8cb56" stroke-width="2" stroke-dasharray="5,2" d="M255,-113C255,-113 12,-113 12,-113 6,-113 0,-107 0,-101 0,-101 0,-84 0,-84 0,-78 6,-72 12,-72 12,-72 255,-72 255,-72 261,-72 267,-78 267,-84 267,-84 267,-101 267,-101 267,-107 261,-113 255,-113"/>
<text text-anchor="middle" x="133.5" y="-101" font-family="sans" font-size="10.00">download_tsv</text>
<text text-anchor="middle" x="133.5" y="-90" font-family="sans" font-size="10.00">feature: annotated_proteins_metadata</text>
<text text-anchor="middle" x="133.5" y="-79" font-family="sans" font-size="10.00">source: RefSeq_Annotated_Proteins_metadata_URL</text>
</g>
<!-- 1&#45;&gt;0 -->
<g id="edge1" class="edge">
<title>1&#45;&gt;0</title>
<path fill="none" stroke="grey" stroke-width="2" d="M267.04,-72.84C270.22,-72.54 273.38,-72.26 276.5,-72 862.33,-23.02 1565.68,-18.22 1845.23,-18.47"/>
<polygon fill="grey" stroke="grey" stroke-width="2" points="1845.4,-21.97 1855.4,-18.48 1845.4,-14.97 1845.4,-21.97"/>
</g>
<!-- 2 -->
<g id="node3" class="node">
<title>2</title>
<path fill="none" stroke="#d8cb56" stroke-width="2" stroke-dasharray="5,2" d="M549.5,-113C549.5,-113 297.5,-113 297.5,-113 291.5,-113 285.5,-107 285.5,-101 285.5,-101 285.5,-84 285.5,-84 285.5,-78 291.5,-72 297.5,-72 297.5,-72 549.5,-72 549.5,-72 555.5,-72 561.5,-78 561.5,-84 561.5,-84 561.5,-101 561.5,-101 561.5,-107 555.5,-113 549.5,-113"/>
<text text-anchor="middle" x="423.5" y="-101" font-family="sans" font-size="10.00">download_tsv</text>
<text text-anchor="middle" x="423.5" y="-90" font-family="sans" font-size="10.00">feature: annotated_proteins_metadata</text>
<text text-anchor="middle" x="423.5" y="-79" font-family="sans" font-size="10.00">source: Genbank_Annotated_Proteins_metadata_URL</text>
</g>
<!-- 2&#45;&gt;0 -->
<g id="edge2" class="edge">
<title>2&#45;&gt;0</title>
<path fill="none" stroke="grey" stroke-width="2" d="M561.56,-72.8C564.57,-72.52 567.55,-72.25 570.5,-72 1040.21,-32.03 1601.26,-22.2 1845.16,-19.79"/>
<polygon fill="grey" stroke="grey" stroke-width="2" points="1845.51,-23.28 1855.48,-19.69 1845.44,-16.28 1845.51,-23.28"/>
</g>
<!-- 3 -->
<g id="node4" class="node">
<title>3</title>
<path fill="none" stroke="#d8cb56" stroke-width="2" stroke-dasharray="5,2" d="M827.5,-113C827.5,-113 591.5,-113 591.5,-113 585.5,-113 579.5,-107 579.5,-101 579.5,-101 579.5,-84 579.5,-84 579.5,-78 585.5,-72 591.5,-72 591.5,-72 827.5,-72 827.5,-72 833.5,-72 839.5,-78 839.5,-84 839.5,-84 839.5,-101 839.5,-101 839.5,-107 833.5,-113 827.5,-113"/>
<text text-anchor="middle" x="709.5" y="-101" font-family="sans" font-size="10.00">download_tsv</text>
<text text-anchor="middle" x="709.5" y="-90" font-family="sans" font-size="10.00">feature: annotated_proteins_metadata</text>
<text text-anchor="middle" x="709.5" y="-79" font-family="sans" font-size="10.00">source: EMBL_Annotated_Proteins_metadata_URL</text>
</g>
<!-- 3&#45;&gt;0 -->
<g id="edge3" class="edge">
<title>3&#45;&gt;0</title>
<path fill="none" stroke="grey" stroke-width="2" d="M839.68,-72.87C842.64,-72.56 845.59,-72.27 848.5,-72 1209.68,-38.19 1638.52,-25.52 1845.12,-21.13"/>
<polygon fill="grey" stroke="grey" stroke-width="2" points="1845.46,-24.62 1855.39,-20.91 1845.32,-17.62 1845.46,-24.62"/>
</g>
<!-- 4 -->
<g id="node5" class="node">
<title>4</title>
<path fill="none" stroke="#d8cb56" stroke-width="2" stroke-dasharray="5,2" d="M1103,-113C1103,-113 870,-113 870,-113 864,-113 858,-107 858,-101 858,-101 858,-84 858,-84 858,-78 864,-72 870,-72 870,-72 1103,-72 1103,-72 1109,-72 1115,-78 1115,-84 1115,-84 1115,-101 1115,-101 1115,-107 1109,-113 1103,-113"/>
<text text-anchor="middle" x="986.5" y="-101" font-family="sans" font-size="10.00">download_tsv</text>
<text text-anchor="middle" x="986.5" y="-90" font-family="sans" font-size="10.00">feature: annotated_proteins_metadata</text>
<text text-anchor="middle" x="986.5" y="-79" font-family="sans" font-size="10.00">source: DDBJ_Annotated_Proteins_metadata_URL</text>
</g>
<!-- 4&#45;&gt;0 -->
<g id="edge4" class="edge">
<title>4&#45;&gt;0</title>
<path fill="none" stroke="grey" stroke-width="2" d="M1115.01,-73.01C1118.2,-72.66 1121.37,-72.32 1124.5,-72 1380.05,-45.96 1680.52,-30.76 1845.14,-23.74"/>
<polygon fill="grey" stroke="grey" stroke-width="2" points="1845.46,-27.23 1855.3,-23.31 1845.16,-20.24 1845.46,-27.23"/>
</g>
<!-- 5 -->
<g id="node6" class="node">
<title>5</title>
<path fill="none" stroke="#d8cb56" stroke-width="2" stroke-dasharray="5,2" d="M1403.5,-113C1403.5,-113 1145.5,-113 1145.5,-113 1139.5,-113 1133.5,-107 1133.5,-101 1133.5,-101 1133.5,-84 1133.5,-84 1133.5,-78 1139.5,-72 1145.5,-72 1145.5,-72 1403.5,-72 1403.5,-72 1409.5,-72 1415.5,-78 1415.5,-84 1415.5,-84 1415.5,-101 1415.5,-101 1415.5,-107 1409.5,-113 1403.5,-113"/>
<text text-anchor="middle" x="1274.5" y="-101" font-family="sans" font-size="10.00">download_tsv</text>
<text text-anchor="middle" x="1274.5" y="-90" font-family="sans" font-size="10.00">feature: annotated_proteins_metadata</text>
<text text-anchor="middle" x="1274.5" y="-79" font-family="sans" font-size="10.00">source: PhagesDB_Annotated_Proteins_metadata_URL</text>
</g>
<!-- 5&#45;&gt;0 -->
<g id="edge5" class="edge">
<title>5&#45;&gt;0</title>
<path fill="none" stroke="grey" stroke-width="2" d="M1415.81,-73C1418.73,-72.66 1421.63,-72.33 1424.5,-72 1568.73,-55.6 1734.84,-39.88 1845.17,-29.88"/>
<polygon fill="grey" stroke="grey" stroke-width="2" points="1845.7,-33.34 1855.34,-28.96 1845.07,-26.37 1845.7,-33.34"/>
</g>
<!-- 6 -->
<g id="node7" class="node">
<title>6</title>
<path fill="none" stroke="#d8cb56" stroke-width="2" stroke-dasharray="5,2" d="M1675.5,-113C1675.5,-113 1445.5,-113 1445.5,-113 1439.5,-113 1433.5,-107 1433.5,-101 1433.5,-101 1433.5,-84 1433.5,-84 1433.5,-78 1439.5,-72 1445.5,-72 1445.5,-72 1675.5,-72 1675.5,-72 1681.5,-72 1687.5,-78 1687.5,-84 1687.5,-84 1687.5,-101 1687.5,-101 1687.5,-107 1681.5,-113 1675.5,-113"/>
<text text-anchor="middle" x="1560.5" y="-101" font-family="sans" font-size="10.00">download_tsv</text>
<text text-anchor="middle" x="1560.5" y="-90" font-family="sans" font-size="10.00">feature: annotated_proteins_metadata</text>
<text text-anchor="middle" x="1560.5" y="-79" font-family="sans" font-size="10.00">source: GVD_Annotated_Proteins_metadata_URL</text>
</g>
<!-- 6&#45;&gt;0 -->
<g id="edge6" class="edge">
<title>6&#45;&gt;0</title>
<path fill="none" stroke="grey" stroke-width="2" d="M1670.37,-71.98C1730.06,-61.37 1803.51,-48.32 1862.57,-37.82"/>
<polygon fill="grey" stroke="grey" stroke-width="2" points="1863.43,-41.22 1872.67,-36.03 1862.21,-34.33 1863.43,-41.22"/>
</g>
<!-- 7 -->
<g id="node8" class="node">
<title>7</title>
<path fill="none" stroke="#d8cb56" stroke-width="2" stroke-dasharray="5,2" d="M1947.5,-113C1947.5,-113 1717.5,-113 1717.5,-113 1711.5,-113 1705.5,-107 1705.5,-101 1705.5,-101 1705.5,-84 1705.5,-84 1705.5,-78 1711.5,-72 1717.5,-72 1717.5,-72 1947.5,-72 1947.5,-72 1953.5,-72 1959.5,-78 1959.5,-84 1959.5,-84 1959.5,-101 1959.5,-101 1959.5,-107 1953.5,-113 1947.5,-113"/>
<text text-anchor="middle" x="1832.5" y="-101" font-family="sans" font-size="10.00">download_tsv</text>
<text text-anchor="middle" x="1832.5" y="-90" font-family="sans" font-size="10.00">feature: annotated_proteins_metadata</text>
<text text-anchor="middle" x="1832.5" y="-79" font-family="sans" font-size="10.00">source: GPD_Annotated_Proteins_metadata_URL</text>
</g>
<!-- 7&#45;&gt;0 -->
<g id="edge7" class="edge">
<title>7&#45;&gt;0</title>
<path fill="none" stroke="grey" stroke-width="2" d="M1869.3,-71.88C1887.2,-62.34 1908.79,-50.83 1927.24,-40.99"/>
<polygon fill="grey" stroke="grey" stroke-width="2" points="1929.12,-43.96 1936.3,-36.17 1925.83,-37.78 1929.12,-43.96"/>
</g>
<!-- 8 -->
<g id="node9" class="node">
<title>8</title>
<path fill="none" stroke="#d8cb56" stroke-width="2" stroke-dasharray="5,2" d="M2221.5,-113C2221.5,-113 1989.5,-113 1989.5,-113 1983.5,-113 1977.5,-107 1977.5,-101 1977.5,-101 1977.5,-84 1977.5,-84 1977.5,-78 1983.5,-72 1989.5,-72 1989.5,-72 2221.5,-72 2221.5,-72 2227.5,-72 2233.5,-78 2233.5,-84 2233.5,-84 2233.5,-101 2233.5,-101 2233.5,-107 2227.5,-113 2221.5,-113"/>
<text text-anchor="middle" x="2105.5" y="-101" font-family="sans" font-size="10.00">download_tsv</text>
<text text-anchor="middle" x="2105.5" y="-90" font-family="sans" font-size="10.00">feature: annotated_proteins_metadata</text>
<text text-anchor="middle" x="2105.5" y="-79" font-family="sans" font-size="10.00">source: MGV_Annotated_Proteins_metadata_URL</text>
</g>
<!-- 8&#45;&gt;0 -->
<g id="edge8" class="edge">
<title>8&#45;&gt;0</title>
<path fill="none" stroke="grey" stroke-width="2" d="M2068.43,-71.88C2050.31,-62.29 2028.45,-50.73 2009.8,-40.86"/>
<polygon fill="grey" stroke="grey" stroke-width="2" points="2011.41,-37.75 2000.94,-36.17 2008.14,-43.94 2011.41,-37.75"/>
</g>
<!-- 9 -->
<g id="node10" class="node">
<title>9</title>
<path fill="none" stroke="#d8cb56" stroke-width="2" stroke-dasharray="5,2" d="M2511.5,-113C2511.5,-113 2263.5,-113 2263.5,-113 2257.5,-113 2251.5,-107 2251.5,-101 2251.5,-101 2251.5,-84 2251.5,-84 2251.5,-78 2257.5,-72 2263.5,-72 2263.5,-72 2511.5,-72 2511.5,-72 2517.5,-72 2523.5,-78 2523.5,-84 2523.5,-84 2523.5,-101 2523.5,-101 2523.5,-107 2517.5,-113 2511.5,-113"/>
<text text-anchor="middle" x="2387.5" y="-101" font-family="sans" font-size="10.00">download_tsv</text>
<text text-anchor="middle" x="2387.5" y="-90" font-family="sans" font-size="10.00">feature: annotated_proteins_metadata</text>
<text text-anchor="middle" x="2387.5" y="-79" font-family="sans" font-size="10.00">source: TemPhD_Annotated_Proteins_metadata_URL</text>
</g>
<!-- 9&#45;&gt;0 -->
<g id="edge9" class="edge">
<title>9&#45;&gt;0</title>
<path fill="none" stroke="grey" stroke-width="2" d="M2274.66,-71.98C2213.25,-61.35 2137.63,-48.26 2076.91,-37.76"/>
<polygon fill="grey" stroke="grey" stroke-width="2" points="2077.37,-34.29 2066.92,-36.03 2076.17,-41.18 2077.37,-34.29"/>
</g>
<!-- 10 -->
<g id="node11" class="node">
<title>10</title>
<path fill="none" stroke="#d8cb56" stroke-width="2" stroke-dasharray="5,2" d="M2791,-113C2791,-113 2554,-113 2554,-113 2548,-113 2542,-107 2542,-101 2542,-101 2542,-84 2542,-84 2542,-78 2548,-72 2554,-72 2554,-72 2791,-72 2791,-72 2797,-72 2803,-78 2803,-84 2803,-84 2803,-101 2803,-101 2803,-107 2797,-113 2791,-113"/>
<text text-anchor="middle" x="2672.5" y="-101" font-family="sans" font-size="10.00">download_tsv</text>
<text text-anchor="middle" x="2672.5" y="-90" font-family="sans" font-size="10.00">feature: annotated_proteins_metadata</text>
<text text-anchor="middle" x="2672.5" y="-79" font-family="sans" font-size="10.00">source: CHVD_Annotated_Proteins_metadata_URL</text>
</g>
<!-- 10&#45;&gt;0 -->
<g id="edge10" class="edge">
<title>10&#45;&gt;0</title>
<path fill="none" stroke="grey" stroke-width="2" d="M2541.74,-73.1C2538.63,-72.72 2535.55,-72.36 2532.5,-72 2381.02,-54.34 2206.11,-38.63 2091.74,-28.98"/>
<polygon fill="grey" stroke="grey" stroke-width="2" points="2091.81,-25.48 2081.55,-28.13 2091.22,-32.45 2091.81,-25.48"/>
</g>
<!-- 11 -->
<g id="node12" class="node">
<title>11</title>
<path fill="none" stroke="#d8cb56" stroke-width="2" stroke-dasharray="5,2" d="M3066,-113C3066,-113 2833,-113 2833,-113 2827,-113 2821,-107 2821,-101 2821,-101 2821,-84 2821,-84 2821,-78 2827,-72 2833,-72 2833,-72 3066,-72 3066,-72 3072,-72 3078,-78 3078,-84 3078,-84 3078,-101 3078,-101 3078,-107 3072,-113 3066,-113"/>
<text text-anchor="middle" x="2949.5" y="-101" font-family="sans" font-size="10.00">download_tsv</text>
<text text-anchor="middle" x="2949.5" y="-90" font-family="sans" font-size="10.00">feature: annotated_proteins_metadata</text>
<text text-anchor="middle" x="2949.5" y="-79" font-family="sans" font-size="10.00">source: IGVD_Annotated_Proteins_metadata_URL</text>
</g>
<!-- 11&#45;&gt;0 -->
<g id="edge11" class="edge">
<title>11&#45;&gt;0</title>
<path fill="none" stroke="grey" stroke-width="2" d="M2820.83,-72.88C2818.03,-72.58 2815.25,-72.28 2812.5,-72 2556.96,-45.83 2256.49,-30.68 2091.86,-23.7"/>
<polygon fill="grey" stroke="grey" stroke-width="2" points="2091.84,-20.2 2081.7,-23.28 2091.54,-27.19 2091.84,-20.2"/>
</g>
<!-- 12 -->
<g id="node13" class="node">
<title>12</title>
<path fill="none" stroke="#d8cb56" stroke-width="2" stroke-dasharray="5,2" d="M3350.5,-113C3350.5,-113 3108.5,-113 3108.5,-113 3102.5,-113 3096.5,-107 3096.5,-101 3096.5,-101 3096.5,-84 3096.5,-84 3096.5,-78 3102.5,-72 3108.5,-72 3108.5,-72 3350.5,-72 3350.5,-72 3356.5,-72 3362.5,-78 3362.5,-84 3362.5,-84 3362.5,-101 3362.5,-101 3362.5,-107 3356.5,-113 3350.5,-113"/>
<text text-anchor="middle" x="3229.5" y="-101" font-family="sans" font-size="10.00">download_tsv</text>
<text text-anchor="middle" x="3229.5" y="-90" font-family="sans" font-size="10.00">feature: annotated_proteins_metadata</text>
<text text-anchor="middle" x="3229.5" y="-79" font-family="sans" font-size="10.00">source: IMGVR_Annotated_Proteins_metadata_URL</text>
</g>
<!-- 12&#45;&gt;0 -->
<g id="edge12" class="edge">
<title>12&#45;&gt;0</title>
<path fill="none" stroke="grey" stroke-width="2" d="M3096.13,-72.83C3093.23,-72.54 3090.35,-72.26 3087.5,-72 2726.59,-38.74 2298.16,-25.82 2091.76,-21.25"/>
<polygon fill="grey" stroke="grey" stroke-width="2" points="2091.58,-17.74 2081.5,-21.02 2091.42,-24.74 2091.58,-17.74"/>
</g>
<!-- 13 -->
<g id="node14" class="node">
<title>13</title>
<path fill="none" stroke="#d8cb56" stroke-width="2" stroke-dasharray="5,2" d="M3628.5,-113C3628.5,-113 3392.5,-113 3392.5,-113 3386.5,-113 3380.5,-107 3380.5,-101 3380.5,-101 3380.5,-84 3380.5,-84 3380.5,-78 3386.5,-72 3392.5,-72 3392.5,-72 3628.5,-72 3628.5,-72 3634.5,-72 3640.5,-78 3640.5,-84 3640.5,-84 3640.5,-101 3640.5,-101 3640.5,-107 3634.5,-113 3628.5,-113"/>
<text text-anchor="middle" x="3510.5" y="-101" font-family="sans" font-size="10.00">download_tsv</text>
<text text-anchor="middle" x="3510.5" y="-90" font-family="sans" font-size="10.00">feature: annotated_proteins_metadata</text>
<text text-anchor="middle" x="3510.5" y="-79" font-family="sans" font-size="10.00">source: GOV2_Annotated_Proteins_metadata_URL</text>
</g>
<!-- 13&#45;&gt;0 -->
<g id="edge13" class="edge">
<title>13&#45;&gt;0</title>
<path fill="none" stroke="grey" stroke-width="2" d="M3380.33,-72.83C3377.36,-72.54 3374.41,-72.26 3371.5,-72 2900.27,-30.15 2337.13,-21.3 2092.3,-19.46"/>
<polygon fill="grey" stroke="grey" stroke-width="2" points="2091.98,-15.96 2081.95,-19.38 2091.93,-22.96 2091.98,-15.96"/>
</g>
<!-- 14 -->
<g id="node15" class="node">
<title>14</title>
<path fill="none" stroke="#d8cb56" stroke-width="2" stroke-dasharray="5,2" d="M3898,-113C3898,-113 3671,-113 3671,-113 3665,-113 3659,-107 3659,-101 3659,-101 3659,-84 3659,-84 3659,-78 3665,-72 3671,-72 3671,-72 3898,-72 3898,-72 3904,-72 3910,-78 3910,-84 3910,-84 3910,-101 3910,-101 3910,-107 3904,-113 3898,-113"/>
<text text-anchor="middle" x="3784.5" y="-101" font-family="sans" font-size="10.00">download_tsv</text>
<text text-anchor="middle" x="3784.5" y="-90" font-family="sans" font-size="10.00">feature: annotated_proteins_metadata</text>
<text text-anchor="middle" x="3784.5" y="-79" font-family="sans" font-size="10.00">source: STV_Annotated_Proteins_metadata_URL</text>
</g>
<!-- 14&#45;&gt;0 -->
<g id="edge14" class="edge">
<title>14&#45;&gt;0</title>
<path fill="none" stroke="grey" stroke-width="2" d="M3658.8,-72.87C3655.67,-72.56 3652.57,-72.27 3649.5,-72 3068.22,-21.02 2370.09,-17.33 2091.77,-18.17"/>
<polygon fill="grey" stroke="grey" stroke-width="2" points="2091.63,-14.67 2081.64,-18.21 2091.65,-21.67 2091.63,-14.67"/>
</g>
</g>
</svg>
