<?xml version="1.0" encoding="UTF-8" standalone="no"?>
<!DOCTYPE svg PUBLIC "-//W3C//DTD SVG 1.1//EN"
 "http://www.w3.org/Graphics/SVG/1.1/DTD/svg11.dtd">
<!-- Generated by graphviz version 2.43.0 (0)
 -->
<!-- Title: snakemake_dag Pages: 1 -->
<svg width="6656pt" height="260pt"
 viewBox="0.00 0.00 6656.00 260.00" xmlns="http://www.w3.org/2000/svg" xmlns:xlink="http://www.w3.org/1999/xlink">
<g id="graph0" class="graph" transform="scale(1 1) rotate(0) translate(4 256)">
<title>snakemake_dag</title>
<polygon fill="white" stroke="transparent" points="-4,4 -4,-256 6652,-256 6652,4 -4,4"/>
<!-- 0 -->
<g id="node1" class="node">
<title>0</title>
<path fill="none" stroke="#d85656" stroke-width="2" stroke-dasharray="5,2" d="M3494,-36C3494,-36 3464,-36 3464,-36 3458,-36 3452,-30 3452,-24 3452,-24 3452,-12 3452,-12 3452,-6 3458,0 3464,0 3464,0 3494,0 3494,0 3500,0 3506,-6 3506,-12 3506,-12 3506,-24 3506,-24 3506,-30 3500,-36 3494,-36"/>
<text text-anchor="middle" x="3479" y="-15.5" font-family="sans" font-size="10.00">all</text>
</g>
<!-- 1 -->
<g id="node2" class="node">
<title>1</title>
<path fill="none" stroke="#61d856" stroke-width="2" stroke-dasharray="5,2" d="M128,-108C128,-108 12,-108 12,-108 6,-108 0,-102 0,-96 0,-96 0,-84 0,-84 0,-78 6,-72 12,-72 12,-72 128,-72 128,-72 134,-72 140,-78 140,-84 140,-84 140,-96 140,-96 140,-102 134,-108 128,-108"/>
<text text-anchor="middle" x="70" y="-93" font-family="sans" font-size="10.00">generate_report</text>
<text text-anchor="middle" x="70" y="-82" font-family="sans" font-size="10.00">feature: phage_metadata</text>
</g>
<!-- 1&#45;&gt;0 -->
<g id="edge1" class="edge">
<title>1&#45;&gt;0</title>
<path fill="none" stroke="grey" stroke-width="2" d="M140.09,-73.17C143.09,-72.73 146.07,-72.33 149,-72 492.36,-32.71 3098.93,-20.58 3441.82,-19.15"/>
<polygon fill="grey" stroke="grey" stroke-width="2" points="3441.98,-22.65 3451.96,-19.11 3441.95,-15.65 3441.98,-22.65"/>
</g>
<!-- 2 -->
<g id="node3" class="node">
<title>2</title>
<path fill="none" stroke="#61d856" stroke-width="2" stroke-dasharray="5,2" d="M351.5,-108C351.5,-108 170.5,-108 170.5,-108 164.5,-108 158.5,-102 158.5,-96 158.5,-96 158.5,-84 158.5,-84 158.5,-78 164.5,-72 170.5,-72 170.5,-72 351.5,-72 351.5,-72 357.5,-72 363.5,-78 363.5,-84 363.5,-84 363.5,-96 363.5,-96 363.5,-102 357.5,-108 351.5,-108"/>
<text text-anchor="middle" x="261" y="-93" font-family="sans" font-size="10.00">generate_report</text>
<text text-anchor="middle" x="261" y="-82" font-family="sans" font-size="10.00">feature: annotated_proteins_metadata</text>
</g>
<!-- 2&#45;&gt;0 -->
<g id="edge2" class="edge">
<title>2&#45;&gt;0</title>
<path fill="none" stroke="grey" stroke-width="2" d="M363.75,-72.76C366.53,-72.49 369.28,-72.23 372,-72 1009.52,-17.99 3132.83,-18.57 3441.46,-18.94"/>
<polygon fill="grey" stroke="grey" stroke-width="2" points="3441.66,-22.44 3451.67,-18.95 3441.67,-15.44 3441.66,-22.44"/>
</g>
<!-- 3 -->
<g id="node4" class="node">
<title>3</title>
<path fill="none" stroke="#61d856" stroke-width="2" stroke-dasharray="5,2" d="M598.5,-108C598.5,-108 393.5,-108 393.5,-108 387.5,-108 381.5,-102 381.5,-96 381.5,-96 381.5,-84 381.5,-84 381.5,-78 387.5,-72 393.5,-72 393.5,-72 598.5,-72 598.5,-72 604.5,-72 610.5,-78 610.5,-84 610.5,-84 610.5,-96 610.5,-96 610.5,-102 604.5,-108 598.5,-108"/>
<text text-anchor="middle" x="496" y="-93" font-family="sans" font-size="10.00">generate_report</text>
<text text-anchor="middle" x="496" y="-82" font-family="sans" font-size="10.00">feature: transcription_terminator_metadata</text>
</g>
<!-- 3&#45;&gt;0 -->
<g id="edge3" class="edge">
<title>3&#45;&gt;0</title>
<path fill="none" stroke="grey" stroke-width="2" d="M610.8,-72.78C613.89,-72.5 616.97,-72.24 620,-72 1205.17,-26.62 3148.43,-19.86 3441.77,-19.09"/>
<polygon fill="grey" stroke="grey" stroke-width="2" points="3441.9,-22.59 3451.89,-19.06 3441.88,-15.59 3441.9,-22.59"/>
</g>
<!-- 4 -->
<g id="node5" class="node">
<title>4</title>
<path fill="none" stroke="#61d856" stroke-width="2" stroke-dasharray="5,2" d="M817,-108C817,-108 641,-108 641,-108 635,-108 629,-102 629,-96 629,-96 629,-84 629,-84 629,-78 635,-72 641,-72 641,-72 817,-72 817,-72 823,-72 829,-78 829,-84 829,-84 829,-96 829,-96 829,-102 823,-108 817,-108"/>
<text text-anchor="middle" x="729" y="-93" font-family="sans" font-size="10.00">generate_report</text>
<text text-anchor="middle" x="729" y="-82" font-family="sans" font-size="10.00">feature: phage_trna_tmrna_metadata</text>
</g>
<!-- 4&#45;&gt;0 -->
<g id="edge4" class="edge">
<title>4&#45;&gt;0</title>
<path fill="none" stroke="grey" stroke-width="2" d="M829.02,-72.87C832.04,-72.55 835.04,-72.26 838,-72 1376.16,-24.85 3160.56,-19.6 3441.6,-19.06"/>
<polygon fill="grey" stroke="grey" stroke-width="2" points="3441.69,-22.56 3451.69,-19.04 3441.68,-15.56 3441.69,-22.56"/>
</g>
<!-- 5 -->
<g id="node6" class="node">
<title>5</title>
<path fill="none" stroke="#61d856" stroke-width="2" stroke-dasharray="5,2" d="M1032.5,-108C1032.5,-108 859.5,-108 859.5,-108 853.5,-108 847.5,-102 847.5,-96 847.5,-96 847.5,-84 847.5,-84 847.5,-78 853.5,-72 859.5,-72 859.5,-72 1032.5,-72 1032.5,-72 1038.5,-72 1044.5,-78 1044.5,-84 1044.5,-84 1044.5,-96 1044.5,-96 1044.5,-102 1038.5,-108 1032.5,-108"/>
<text text-anchor="middle" x="946" y="-93" font-family="sans" font-size="10.00">generate_report</text>
<text text-anchor="middle" x="946" y="-82" font-family="sans" font-size="10.00">feature: phage_anti_crispr_metadata</text>
</g>
<!-- 5&#45;&gt;0 -->
<g id="edge5" class="edge">
<title>5&#45;&gt;0</title>
<path fill="none" stroke="grey" stroke-width="2" d="M1044.76,-72.81C1047.53,-72.52 1050.28,-72.24 1053,-72 1545.22,-27.73 3172.96,-20.09 3441.37,-19.12"/>
<polygon fill="grey" stroke="grey" stroke-width="2" points="3441.76,-22.62 3451.74,-19.08 3441.73,-15.62 3441.76,-22.62"/>
</g>
<!-- 6 -->
<g id="node7" class="node">
<title>6</title>
<path fill="none" stroke="#61d856" stroke-width="2" stroke-dasharray="5,2" d="M1267.5,-108C1267.5,-108 1074.5,-108 1074.5,-108 1068.5,-108 1062.5,-102 1062.5,-96 1062.5,-96 1062.5,-84 1062.5,-84 1062.5,-78 1068.5,-72 1074.5,-72 1074.5,-72 1267.5,-72 1267.5,-72 1273.5,-72 1279.5,-78 1279.5,-84 1279.5,-84 1279.5,-96 1279.5,-96 1279.5,-102 1273.5,-108 1267.5,-108"/>
<text text-anchor="middle" x="1171" y="-93" font-family="sans" font-size="10.00">generate_report</text>
<text text-anchor="middle" x="1171" y="-82" font-family="sans" font-size="10.00">feature: phage_virulent_factor_metadata</text>
</g>
<!-- 6&#45;&gt;0 -->
<g id="edge6" class="edge">
<title>6&#45;&gt;0</title>
<path fill="none" stroke="grey" stroke-width="2" d="M1279.63,-72.76C1282.44,-72.49 1285.24,-72.23 1288,-72 1730.69,-34.62 3188.86,-21.33 3441.53,-19.29"/>
<polygon fill="grey" stroke="grey" stroke-width="2" points="3441.69,-22.79 3451.66,-19.21 3441.63,-15.79 3441.69,-22.79"/>
</g>
<!-- 7 -->
<g id="node8" class="node">
<title>7</title>
<path fill="none" stroke="#61d856" stroke-width="2" stroke-dasharray="5,2" d="M1548.5,-108C1548.5,-108 1309.5,-108 1309.5,-108 1303.5,-108 1297.5,-102 1297.5,-96 1297.5,-96 1297.5,-84 1297.5,-84 1297.5,-78 1303.5,-72 1309.5,-72 1309.5,-72 1548.5,-72 1548.5,-72 1554.5,-72 1560.5,-78 1560.5,-84 1560.5,-84 1560.5,-96 1560.5,-96 1560.5,-102 1554.5,-108 1548.5,-108"/>
<text text-anchor="middle" x="1429" y="-93" font-family="sans" font-size="10.00">generate_report</text>
<text text-anchor="middle" x="1429" y="-82" font-family="sans" font-size="10.00">feature: phage_transmembrane_protein_metadata</text>
</g>
<!-- 7&#45;&gt;0 -->
<g id="edge7" class="edge">
<title>7&#45;&gt;0</title>
<path fill="none" stroke="grey" stroke-width="2" d="M1560.87,-72.64C1563.6,-72.41 1566.31,-72.2 1569,-72 2322.21,-15.94 3246.48,-17.68 3441.72,-18.74"/>
<polygon fill="grey" stroke="grey" stroke-width="2" points="3441.73,-22.24 3451.75,-18.8 3441.77,-15.24 3441.73,-22.24"/>
</g>
<!-- 8 -->
<g id="node9" class="node">
<title>8</title>
<path fill="none" stroke="#568ad8" stroke-width="2" stroke-dasharray="5,2" d="M1739.5,-108C1739.5,-108 1590.5,-108 1590.5,-108 1584.5,-108 1578.5,-102 1578.5,-96 1578.5,-96 1578.5,-84 1578.5,-84 1578.5,-78 1584.5,-72 1590.5,-72 1590.5,-72 1739.5,-72 1739.5,-72 1745.5,-72 1751.5,-78 1751.5,-84 1751.5,-84 1751.5,-96 1751.5,-96 1751.5,-102 1745.5,-108 1739.5,-108"/>
<text text-anchor="middle" x="1665" y="-87.5" font-family="sans" font-size="10.00">merge_protein_fasta_by_source</text>
</g>
<!-- 8&#45;&gt;0 -->
<g id="edge8" class="edge">
<title>8&#45;&gt;0</title>
<path fill="none" stroke="grey" stroke-width="2" d="M1751.65,-72.96C1754.46,-72.61 1757.25,-72.29 1760,-72 2102.4,-36.28 3222.74,-21.91 3441.7,-19.41"/>
<polygon fill="grey" stroke="grey" stroke-width="2" points="3441.76,-22.91 3451.72,-19.29 3441.68,-15.91 3441.76,-22.91"/>
</g>
<!-- 9 -->
<g id="node10" class="node">
<title>9</title>
<path fill="none" stroke="#80d856" stroke-width="2" stroke-dasharray="5,2" d="M1713.5,-180C1713.5,-180 1616.5,-180 1616.5,-180 1610.5,-180 1604.5,-174 1604.5,-168 1604.5,-168 1604.5,-156 1604.5,-156 1604.5,-150 1610.5,-144 1616.5,-144 1616.5,-144 1713.5,-144 1713.5,-144 1719.5,-144 1725.5,-150 1725.5,-156 1725.5,-156 1725.5,-168 1725.5,-168 1725.5,-174 1719.5,-180 1713.5,-180"/>
<text text-anchor="middle" x="1665" y="-159.5" font-family="sans" font-size="10.00">extract_protein_fasta</text>
</g>
<!-- 9&#45;&gt;8 -->
<g id="edge35" class="edge">
<title>9&#45;&gt;8</title>
<path fill="none" stroke="grey" stroke-width="2" d="M1665,-143.7C1665,-135.98 1665,-126.71 1665,-118.11"/>
<polygon fill="grey" stroke="grey" stroke-width="2" points="1668.5,-118.1 1665,-108.1 1661.5,-118.1 1668.5,-118.1"/>
</g>
<!-- 10 -->
<g id="node11" class="node">
<title>10</title>
<path fill="none" stroke="#ced856" stroke-width="2" stroke-dasharray="5,2" d="M1720,-252C1720,-252 1610,-252 1610,-252 1604,-252 1598,-246 1598,-240 1598,-240 1598,-228 1598,-228 1598,-222 1604,-216 1610,-216 1610,-216 1720,-216 1720,-216 1726,-216 1732,-222 1732,-228 1732,-228 1732,-240 1732,-240 1732,-246 1726,-252 1720,-252"/>
<text text-anchor="middle" x="1665" y="-237" font-family="sans" font-size="10.00">download_protein_fasta</text>
<text text-anchor="middle" x="1665" y="-226" font-family="sans" font-size="10.00">dataset: Genbank</text>
</g>
<!-- 10&#45;&gt;9 -->
<g id="edge36" class="edge">
<title>10&#45;&gt;9</title>
<path fill="none" stroke="grey" stroke-width="2" d="M1665,-215.7C1665,-207.98 1665,-198.71 1665,-190.11"/>
<polygon fill="grey" stroke="grey" stroke-width="2" points="1668.5,-190.1 1665,-180.1 1661.5,-190.1 1668.5,-190.1"/>
</g>
<!-- 11 -->
<g id="node12" class="node">
<title>11</title>
<path fill="none" stroke="#568ad8" stroke-width="2" stroke-dasharray="5,2" d="M1930.5,-108C1930.5,-108 1781.5,-108 1781.5,-108 1775.5,-108 1769.5,-102 1769.5,-96 1769.5,-96 1769.5,-84 1769.5,-84 1769.5,-78 1775.5,-72 1781.5,-72 1781.5,-72 1930.5,-72 1930.5,-72 1936.5,-72 1942.5,-78 1942.5,-84 1942.5,-84 1942.5,-96 1942.5,-96 1942.5,-102 1936.5,-108 1930.5,-108"/>
<text text-anchor="middle" x="1856" y="-87.5" font-family="sans" font-size="10.00">merge_protein_fasta_by_source</text>
</g>
<!-- 11&#45;&gt;0 -->
<g id="edge9" class="edge">
<title>11&#45;&gt;0</title>
<path fill="none" stroke="grey" stroke-width="2" d="M1942.65,-72.97C1945.46,-72.62 1948.25,-72.29 1951,-72 2253.26,-39.88 3237.67,-22.81 3441.75,-19.57"/>
<polygon fill="grey" stroke="grey" stroke-width="2" points="3442.01,-23.07 3451.95,-19.41 3441.9,-16.07 3442.01,-23.07"/>
</g>
<!-- 12 -->
<g id="node13" class="node">
<title>12</title>
<path fill="none" stroke="#80d856" stroke-width="2" stroke-dasharray="5,2" d="M1904.5,-180C1904.5,-180 1807.5,-180 1807.5,-180 1801.5,-180 1795.5,-174 1795.5,-168 1795.5,-168 1795.5,-156 1795.5,-156 1795.5,-150 1801.5,-144 1807.5,-144 1807.5,-144 1904.5,-144 1904.5,-144 1910.5,-144 1916.5,-150 1916.5,-156 1916.5,-156 1916.5,-168 1916.5,-168 1916.5,-174 1910.5,-180 1904.5,-180"/>
<text text-anchor="middle" x="1856" y="-159.5" font-family="sans" font-size="10.00">extract_protein_fasta</text>
</g>
<!-- 12&#45;&gt;11 -->
<g id="edge37" class="edge">
<title>12&#45;&gt;11</title>
<path fill="none" stroke="grey" stroke-width="2" d="M1856,-143.7C1856,-135.98 1856,-126.71 1856,-118.11"/>
<polygon fill="grey" stroke="grey" stroke-width="2" points="1859.5,-118.1 1856,-108.1 1852.5,-118.1 1859.5,-118.1"/>
</g>
<!-- 13 -->
<g id="node14" class="node">
<title>13</title>
<path fill="none" stroke="#ced856" stroke-width="2" stroke-dasharray="5,2" d="M1911,-252C1911,-252 1801,-252 1801,-252 1795,-252 1789,-246 1789,-240 1789,-240 1789,-228 1789,-228 1789,-222 1795,-216 1801,-216 1801,-216 1911,-216 1911,-216 1917,-216 1923,-222 1923,-228 1923,-228 1923,-240 1923,-240 1923,-246 1917,-252 1911,-252"/>
<text text-anchor="middle" x="1856" y="-237" font-family="sans" font-size="10.00">download_protein_fasta</text>
<text text-anchor="middle" x="1856" y="-226" font-family="sans" font-size="10.00">dataset: RefSeq</text>
</g>
<!-- 13&#45;&gt;12 -->
<g id="edge38" class="edge">
<title>13&#45;&gt;12</title>
<path fill="none" stroke="grey" stroke-width="2" d="M1856,-215.7C1856,-207.98 1856,-198.71 1856,-190.11"/>
<polygon fill="grey" stroke="grey" stroke-width="2" points="1859.5,-190.1 1856,-180.1 1852.5,-190.1 1859.5,-190.1"/>
</g>
<!-- 14 -->
<g id="node15" class="node">
<title>14</title>
<path fill="none" stroke="#568ad8" stroke-width="2" stroke-dasharray="5,2" d="M2121.5,-108C2121.5,-108 1972.5,-108 1972.5,-108 1966.5,-108 1960.5,-102 1960.5,-96 1960.5,-96 1960.5,-84 1960.5,-84 1960.5,-78 1966.5,-72 1972.5,-72 1972.5,-72 2121.5,-72 2121.5,-72 2127.5,-72 2133.5,-78 2133.5,-84 2133.5,-84 2133.5,-96 2133.5,-96 2133.5,-102 2127.5,-108 2121.5,-108"/>
<text text-anchor="middle" x="2047" y="-87.5" font-family="sans" font-size="10.00">merge_protein_fasta_by_source</text>
</g>
<!-- 14&#45;&gt;0 -->
<g id="edge10" class="edge">
<title>14&#45;&gt;0</title>
<path fill="none" stroke="grey" stroke-width="2" d="M2133.65,-72.99C2136.46,-72.63 2139.25,-72.3 2142,-72 2654.46,-16.26 3283.07,-17.33 3441.43,-18.6"/>
<polygon fill="grey" stroke="grey" stroke-width="2" points="3441.57,-22.1 3451.6,-18.69 3441.63,-15.11 3441.57,-22.1"/>
</g>
<!-- 15 -->
<g id="node16" class="node">
<title>15</title>
<path fill="none" stroke="#80d856" stroke-width="2" stroke-dasharray="5,2" d="M2095.5,-180C2095.5,-180 1998.5,-180 1998.5,-180 1992.5,-180 1986.5,-174 1986.5,-168 1986.5,-168 1986.5,-156 1986.5,-156 1986.5,-150 1992.5,-144 1998.5,-144 1998.5,-144 2095.5,-144 2095.5,-144 2101.5,-144 2107.5,-150 2107.5,-156 2107.5,-156 2107.5,-168 2107.5,-168 2107.5,-174 2101.5,-180 2095.5,-180"/>
<text text-anchor="middle" x="2047" y="-159.5" font-family="sans" font-size="10.00">extract_protein_fasta</text>
</g>
<!-- 15&#45;&gt;14 -->
<g id="edge39" class="edge">
<title>15&#45;&gt;14</title>
<path fill="none" stroke="grey" stroke-width="2" d="M2047,-143.7C2047,-135.98 2047,-126.71 2047,-118.11"/>
<polygon fill="grey" stroke="grey" stroke-width="2" points="2050.5,-118.1 2047,-108.1 2043.5,-118.1 2050.5,-118.1"/>
</g>
<!-- 16 -->
<g id="node17" class="node">
<title>16</title>
<path fill="none" stroke="#ced856" stroke-width="2" stroke-dasharray="5,2" d="M2102,-252C2102,-252 1992,-252 1992,-252 1986,-252 1980,-246 1980,-240 1980,-240 1980,-228 1980,-228 1980,-222 1986,-216 1992,-216 1992,-216 2102,-216 2102,-216 2108,-216 2114,-222 2114,-228 2114,-228 2114,-240 2114,-240 2114,-246 2108,-252 2102,-252"/>
<text text-anchor="middle" x="2047" y="-237" font-family="sans" font-size="10.00">download_protein_fasta</text>
<text text-anchor="middle" x="2047" y="-226" font-family="sans" font-size="10.00">dataset: DDBJ</text>
</g>
<!-- 16&#45;&gt;15 -->
<g id="edge40" class="edge">
<title>16&#45;&gt;15</title>
<path fill="none" stroke="grey" stroke-width="2" d="M2047,-215.7C2047,-207.98 2047,-198.71 2047,-190.11"/>
<polygon fill="grey" stroke="grey" stroke-width="2" points="2050.5,-190.1 2047,-180.1 2043.5,-190.1 2050.5,-190.1"/>
</g>
<!-- 17 -->
<g id="node18" class="node">
<title>17</title>
<path fill="none" stroke="#568ad8" stroke-width="2" stroke-dasharray="5,2" d="M2312.5,-108C2312.5,-108 2163.5,-108 2163.5,-108 2157.5,-108 2151.5,-102 2151.5,-96 2151.5,-96 2151.5,-84 2151.5,-84 2151.5,-78 2157.5,-72 2163.5,-72 2163.5,-72 2312.5,-72 2312.5,-72 2318.5,-72 2324.5,-78 2324.5,-84 2324.5,-84 2324.5,-96 2324.5,-96 2324.5,-102 2318.5,-108 2312.5,-108"/>
<text text-anchor="middle" x="2238" y="-87.5" font-family="sans" font-size="10.00">merge_protein_fasta_by_source</text>
</g>
<!-- 17&#45;&gt;0 -->
<g id="edge11" class="edge">
<title>17&#45;&gt;0</title>
<path fill="none" stroke="grey" stroke-width="2" d="M2324.65,-73.01C2327.46,-72.65 2330.25,-72.31 2333,-72 2766.99,-23.35 3298.25,-19.16 3441.79,-18.96"/>
<polygon fill="grey" stroke="grey" stroke-width="2" points="3441.83,-22.46 3451.83,-18.95 3441.82,-15.46 3441.83,-22.46"/>
</g>
<!-- 18 -->
<g id="node19" class="node">
<title>18</title>
<path fill="none" stroke="#80d856" stroke-width="2" stroke-dasharray="5,2" d="M2286.5,-180C2286.5,-180 2189.5,-180 2189.5,-180 2183.5,-180 2177.5,-174 2177.5,-168 2177.5,-168 2177.5,-156 2177.5,-156 2177.5,-150 2183.5,-144 2189.5,-144 2189.5,-144 2286.5,-144 2286.5,-144 2292.5,-144 2298.5,-150 2298.5,-156 2298.5,-156 2298.5,-168 2298.5,-168 2298.5,-174 2292.5,-180 2286.5,-180"/>
<text text-anchor="middle" x="2238" y="-159.5" font-family="sans" font-size="10.00">extract_protein_fasta</text>
</g>
<!-- 18&#45;&gt;17 -->
<g id="edge41" class="edge">
<title>18&#45;&gt;17</title>
<path fill="none" stroke="grey" stroke-width="2" d="M2238,-143.7C2238,-135.98 2238,-126.71 2238,-118.11"/>
<polygon fill="grey" stroke="grey" stroke-width="2" points="2241.5,-118.1 2238,-108.1 2234.5,-118.1 2241.5,-118.1"/>
</g>
<!-- 19 -->
<g id="node20" class="node">
<title>19</title>
<path fill="none" stroke="#ced856" stroke-width="2" stroke-dasharray="5,2" d="M2293,-252C2293,-252 2183,-252 2183,-252 2177,-252 2171,-246 2171,-240 2171,-240 2171,-228 2171,-228 2171,-222 2177,-216 2183,-216 2183,-216 2293,-216 2293,-216 2299,-216 2305,-222 2305,-228 2305,-228 2305,-240 2305,-240 2305,-246 2299,-252 2293,-252"/>
<text text-anchor="middle" x="2238" y="-237" font-family="sans" font-size="10.00">download_protein_fasta</text>
<text text-anchor="middle" x="2238" y="-226" font-family="sans" font-size="10.00">dataset: EMBL</text>
</g>
<!-- 19&#45;&gt;18 -->
<g id="edge42" class="edge">
<title>19&#45;&gt;18</title>
<path fill="none" stroke="grey" stroke-width="2" d="M2238,-215.7C2238,-207.98 2238,-198.71 2238,-190.11"/>
<polygon fill="grey" stroke="grey" stroke-width="2" points="2241.5,-190.1 2238,-180.1 2234.5,-190.1 2241.5,-190.1"/>
</g>
<!-- 20 -->
<g id="node21" class="node">
<title>20</title>
<path fill="none" stroke="#568ad8" stroke-width="2" stroke-dasharray="5,2" d="M2503.5,-108C2503.5,-108 2354.5,-108 2354.5,-108 2348.5,-108 2342.5,-102 2342.5,-96 2342.5,-96 2342.5,-84 2342.5,-84 2342.5,-78 2348.5,-72 2354.5,-72 2354.5,-72 2503.5,-72 2503.5,-72 2509.5,-72 2515.5,-78 2515.5,-84 2515.5,-84 2515.5,-96 2515.5,-96 2515.5,-102 2509.5,-108 2503.5,-108"/>
<text text-anchor="middle" x="2429" y="-87.5" font-family="sans" font-size="10.00">merge_protein_fasta_by_source</text>
</g>
<!-- 20&#45;&gt;0 -->
<g id="edge12" class="edge">
<title>20&#45;&gt;0</title>
<path fill="none" stroke="grey" stroke-width="2" d="M2515.66,-73.04C2518.47,-72.67 2521.25,-72.32 2524,-72 2879.74,-30.46 3313.95,-21.29 3441.88,-19.44"/>
<polygon fill="grey" stroke="grey" stroke-width="2" points="3441.98,-22.94 3451.93,-19.3 3441.88,-15.94 3441.98,-22.94"/>
</g>
<!-- 21 -->
<g id="node22" class="node">
<title>21</title>
<path fill="none" stroke="#80d856" stroke-width="2" stroke-dasharray="5,2" d="M2477.5,-180C2477.5,-180 2380.5,-180 2380.5,-180 2374.5,-180 2368.5,-174 2368.5,-168 2368.5,-168 2368.5,-156 2368.5,-156 2368.5,-150 2374.5,-144 2380.5,-144 2380.5,-144 2477.5,-144 2477.5,-144 2483.5,-144 2489.5,-150 2489.5,-156 2489.5,-156 2489.5,-168 2489.5,-168 2489.5,-174 2483.5,-180 2477.5,-180"/>
<text text-anchor="middle" x="2429" y="-159.5" font-family="sans" font-size="10.00">extract_protein_fasta</text>
</g>
<!-- 21&#45;&gt;20 -->
<g id="edge43" class="edge">
<title>21&#45;&gt;20</title>
<path fill="none" stroke="grey" stroke-width="2" d="M2429,-143.7C2429,-135.98 2429,-126.71 2429,-118.11"/>
<polygon fill="grey" stroke="grey" stroke-width="2" points="2432.5,-118.1 2429,-108.1 2425.5,-118.1 2432.5,-118.1"/>
</g>
<!-- 22 -->
<g id="node23" class="node">
<title>22</title>
<path fill="none" stroke="#ced856" stroke-width="2" stroke-dasharray="5,2" d="M2484,-252C2484,-252 2374,-252 2374,-252 2368,-252 2362,-246 2362,-240 2362,-240 2362,-228 2362,-228 2362,-222 2368,-216 2374,-216 2374,-216 2484,-216 2484,-216 2490,-216 2496,-222 2496,-228 2496,-228 2496,-240 2496,-240 2496,-246 2490,-252 2484,-252"/>
<text text-anchor="middle" x="2429" y="-237" font-family="sans" font-size="10.00">download_protein_fasta</text>
<text text-anchor="middle" x="2429" y="-226" font-family="sans" font-size="10.00">dataset: PhagesDB</text>
</g>
<!-- 22&#45;&gt;21 -->
<g id="edge44" class="edge">
<title>22&#45;&gt;21</title>
<path fill="none" stroke="grey" stroke-width="2" d="M2429,-215.7C2429,-207.98 2429,-198.71 2429,-190.11"/>
<polygon fill="grey" stroke="grey" stroke-width="2" points="2432.5,-190.1 2429,-180.1 2425.5,-190.1 2432.5,-190.1"/>
</g>
<!-- 23 -->
<g id="node24" class="node">
<title>23</title>
<path fill="none" stroke="#568ad8" stroke-width="2" stroke-dasharray="5,2" d="M2694.5,-108C2694.5,-108 2545.5,-108 2545.5,-108 2539.5,-108 2533.5,-102 2533.5,-96 2533.5,-96 2533.5,-84 2533.5,-84 2533.5,-78 2539.5,-72 2545.5,-72 2545.5,-72 2694.5,-72 2694.5,-72 2700.5,-72 2706.5,-78 2706.5,-84 2706.5,-84 2706.5,-96 2706.5,-96 2706.5,-102 2700.5,-108 2694.5,-108"/>
<text text-anchor="middle" x="2620" y="-87.5" font-family="sans" font-size="10.00">merge_protein_fasta_by_source</text>
</g>
<!-- 23&#45;&gt;0 -->
<g id="edge13" class="edge">
<title>23&#45;&gt;0</title>
<path fill="none" stroke="grey" stroke-width="2" d="M2706.66,-73.09C2709.47,-72.71 2712.26,-72.34 2715,-72 2993.02,-37.58 3330.94,-23.92 3441.82,-20.16"/>
<polygon fill="grey" stroke="grey" stroke-width="2" points="3441.95,-23.66 3451.83,-19.82 3441.72,-16.66 3441.95,-23.66"/>
</g>
<!-- 24 -->
<g id="node25" class="node">
<title>24</title>
<path fill="none" stroke="#80d856" stroke-width="2" stroke-dasharray="5,2" d="M2668.5,-180C2668.5,-180 2571.5,-180 2571.5,-180 2565.5,-180 2559.5,-174 2559.5,-168 2559.5,-168 2559.5,-156 2559.5,-156 2559.5,-150 2565.5,-144 2571.5,-144 2571.5,-144 2668.5,-144 2668.5,-144 2674.5,-144 2680.5,-150 2680.5,-156 2680.5,-156 2680.5,-168 2680.5,-168 2680.5,-174 2674.5,-180 2668.5,-180"/>
<text text-anchor="middle" x="2620" y="-159.5" font-family="sans" font-size="10.00">extract_protein_fasta</text>
</g>
<!-- 24&#45;&gt;23 -->
<g id="edge45" class="edge">
<title>24&#45;&gt;23</title>
<path fill="none" stroke="grey" stroke-width="2" d="M2620,-143.7C2620,-135.98 2620,-126.71 2620,-118.11"/>
<polygon fill="grey" stroke="grey" stroke-width="2" points="2623.5,-118.1 2620,-108.1 2616.5,-118.1 2623.5,-118.1"/>
</g>
<!-- 25 -->
<g id="node26" class="node">
<title>25</title>
<path fill="none" stroke="#ced856" stroke-width="2" stroke-dasharray="5,2" d="M2675,-252C2675,-252 2565,-252 2565,-252 2559,-252 2553,-246 2553,-240 2553,-240 2553,-228 2553,-228 2553,-222 2559,-216 2565,-216 2565,-216 2675,-216 2675,-216 2681,-216 2687,-222 2687,-228 2687,-228 2687,-240 2687,-240 2687,-246 2681,-252 2675,-252"/>
<text text-anchor="middle" x="2620" y="-237" font-family="sans" font-size="10.00">download_protein_fasta</text>
<text text-anchor="middle" x="2620" y="-226" font-family="sans" font-size="10.00">dataset: GPD</text>
</g>
<!-- 25&#45;&gt;24 -->
<g id="edge46" class="edge">
<title>25&#45;&gt;24</title>
<path fill="none" stroke="grey" stroke-width="2" d="M2620,-215.7C2620,-207.98 2620,-198.71 2620,-190.11"/>
<polygon fill="grey" stroke="grey" stroke-width="2" points="2623.5,-190.1 2620,-180.1 2616.5,-190.1 2623.5,-190.1"/>
</g>
<!-- 26 -->
<g id="node27" class="node">
<title>26</title>
<path fill="none" stroke="#568ad8" stroke-width="2" stroke-dasharray="5,2" d="M2885.5,-108C2885.5,-108 2736.5,-108 2736.5,-108 2730.5,-108 2724.5,-102 2724.5,-96 2724.5,-96 2724.5,-84 2724.5,-84 2724.5,-78 2730.5,-72 2736.5,-72 2736.5,-72 2885.5,-72 2885.5,-72 2891.5,-72 2897.5,-78 2897.5,-84 2897.5,-84 2897.5,-96 2897.5,-96 2897.5,-102 2891.5,-108 2885.5,-108"/>
<text text-anchor="middle" x="2811" y="-87.5" font-family="sans" font-size="10.00">merge_protein_fasta_by_source</text>
</g>
<!-- 26&#45;&gt;0 -->
<g id="edge14" class="edge">
<title>26&#45;&gt;0</title>
<path fill="none" stroke="grey" stroke-width="2" d="M2897.67,-73.18C2900.48,-72.77 2903.26,-72.37 2906,-72 3107.17,-44.75 3350,-27.37 3441.61,-21.36"/>
<polygon fill="grey" stroke="grey" stroke-width="2" points="3442.01,-24.84 3451.77,-20.7 3441.56,-17.85 3442.01,-24.84"/>
</g>
<!-- 27 -->
<g id="node28" class="node">
<title>27</title>
<path fill="none" stroke="#80d856" stroke-width="2" stroke-dasharray="5,2" d="M2859.5,-180C2859.5,-180 2762.5,-180 2762.5,-180 2756.5,-180 2750.5,-174 2750.5,-168 2750.5,-168 2750.5,-156 2750.5,-156 2750.5,-150 2756.5,-144 2762.5,-144 2762.5,-144 2859.5,-144 2859.5,-144 2865.5,-144 2871.5,-150 2871.5,-156 2871.5,-156 2871.5,-168 2871.5,-168 2871.5,-174 2865.5,-180 2859.5,-180"/>
<text text-anchor="middle" x="2811" y="-159.5" font-family="sans" font-size="10.00">extract_protein_fasta</text>
</g>
<!-- 27&#45;&gt;26 -->
<g id="edge47" class="edge">
<title>27&#45;&gt;26</title>
<path fill="none" stroke="grey" stroke-width="2" d="M2811,-143.7C2811,-135.98 2811,-126.71 2811,-118.11"/>
<polygon fill="grey" stroke="grey" stroke-width="2" points="2814.5,-118.1 2811,-108.1 2807.5,-118.1 2814.5,-118.1"/>
</g>
<!-- 28 -->
<g id="node29" class="node">
<title>28</title>
<path fill="none" stroke="#ced856" stroke-width="2" stroke-dasharray="5,2" d="M2866,-252C2866,-252 2756,-252 2756,-252 2750,-252 2744,-246 2744,-240 2744,-240 2744,-228 2744,-228 2744,-222 2750,-216 2756,-216 2756,-216 2866,-216 2866,-216 2872,-216 2878,-222 2878,-228 2878,-228 2878,-240 2878,-240 2878,-246 2872,-252 2866,-252"/>
<text text-anchor="middle" x="2811" y="-237" font-family="sans" font-size="10.00">download_protein_fasta</text>
<text text-anchor="middle" x="2811" y="-226" font-family="sans" font-size="10.00">dataset: GVD</text>
</g>
<!-- 28&#45;&gt;27 -->
<g id="edge48" class="edge">
<title>28&#45;&gt;27</title>
<path fill="none" stroke="grey" stroke-width="2" d="M2811,-215.7C2811,-207.98 2811,-198.71 2811,-190.11"/>
<polygon fill="grey" stroke="grey" stroke-width="2" points="2814.5,-190.1 2811,-180.1 2807.5,-190.1 2814.5,-190.1"/>
</g>
<!-- 29 -->
<g id="node30" class="node">
<title>29</title>
<path fill="none" stroke="#568ad8" stroke-width="2" stroke-dasharray="5,2" d="M3076.5,-108C3076.5,-108 2927.5,-108 2927.5,-108 2921.5,-108 2915.5,-102 2915.5,-96 2915.5,-96 2915.5,-84 2915.5,-84 2915.5,-78 2921.5,-72 2927.5,-72 2927.5,-72 3076.5,-72 3076.5,-72 3082.5,-72 3088.5,-78 3088.5,-84 3088.5,-84 3088.5,-96 3088.5,-96 3088.5,-102 3082.5,-108 3076.5,-108"/>
<text text-anchor="middle" x="3002" y="-87.5" font-family="sans" font-size="10.00">merge_protein_fasta_by_source</text>
</g>
<!-- 29&#45;&gt;0 -->
<g id="edge15" class="edge">
<title>29&#45;&gt;0</title>
<path fill="none" stroke="grey" stroke-width="2" d="M3088.7,-73.34C3091.5,-72.88 3094.27,-72.43 3097,-72 3222.85,-52.02 3372.71,-32.45 3441.32,-23.73"/>
<polygon fill="grey" stroke="grey" stroke-width="2" points="3442.14,-27.15 3451.62,-22.42 3441.26,-20.21 3442.14,-27.15"/>
</g>
<!-- 30 -->
<g id="node31" class="node">
<title>30</title>
<path fill="none" stroke="#80d856" stroke-width="2" stroke-dasharray="5,2" d="M3050.5,-180C3050.5,-180 2953.5,-180 2953.5,-180 2947.5,-180 2941.5,-174 2941.5,-168 2941.5,-168 2941.5,-156 2941.5,-156 2941.5,-150 2947.5,-144 2953.5,-144 2953.5,-144 3050.5,-144 3050.5,-144 3056.5,-144 3062.5,-150 3062.5,-156 3062.5,-156 3062.5,-168 3062.5,-168 3062.5,-174 3056.5,-180 3050.5,-180"/>
<text text-anchor="middle" x="3002" y="-159.5" font-family="sans" font-size="10.00">extract_protein_fasta</text>
</g>
<!-- 30&#45;&gt;29 -->
<g id="edge49" class="edge">
<title>30&#45;&gt;29</title>
<path fill="none" stroke="grey" stroke-width="2" d="M3002,-143.7C3002,-135.98 3002,-126.71 3002,-118.11"/>
<polygon fill="grey" stroke="grey" stroke-width="2" points="3005.5,-118.1 3002,-108.1 2998.5,-118.1 3005.5,-118.1"/>
</g>
<!-- 31 -->
<g id="node32" class="node">
<title>31</title>
<path fill="none" stroke="#ced856" stroke-width="2" stroke-dasharray="5,2" d="M3057,-252C3057,-252 2947,-252 2947,-252 2941,-252 2935,-246 2935,-240 2935,-240 2935,-228 2935,-228 2935,-222 2941,-216 2947,-216 2947,-216 3057,-216 3057,-216 3063,-216 3069,-222 3069,-228 3069,-228 3069,-240 3069,-240 3069,-246 3063,-252 3057,-252"/>
<text text-anchor="middle" x="3002" y="-237" font-family="sans" font-size="10.00">download_protein_fasta</text>
<text text-anchor="middle" x="3002" y="-226" font-family="sans" font-size="10.00">dataset: MGV</text>
</g>
<!-- 31&#45;&gt;30 -->
<g id="edge50" class="edge">
<title>31&#45;&gt;30</title>
<path fill="none" stroke="grey" stroke-width="2" d="M3002,-215.7C3002,-207.98 3002,-198.71 3002,-190.11"/>
<polygon fill="grey" stroke="grey" stroke-width="2" points="3005.5,-190.1 3002,-180.1 2998.5,-190.1 3005.5,-190.1"/>
</g>
<!-- 32 -->
<g id="node33" class="node">
<title>32</title>
<path fill="none" stroke="#568ad8" stroke-width="2" stroke-dasharray="5,2" d="M3267.5,-108C3267.5,-108 3118.5,-108 3118.5,-108 3112.5,-108 3106.5,-102 3106.5,-96 3106.5,-96 3106.5,-84 3106.5,-84 3106.5,-78 3112.5,-72 3118.5,-72 3118.5,-72 3267.5,-72 3267.5,-72 3273.5,-72 3279.5,-78 3279.5,-84 3279.5,-84 3279.5,-96 3279.5,-96 3279.5,-102 3273.5,-108 3267.5,-108"/>
<text text-anchor="middle" x="3193" y="-87.5" font-family="sans" font-size="10.00">merge_protein_fasta_by_source</text>
</g>
<!-- 32&#45;&gt;0 -->
<g id="edge16" class="edge">
<title>32&#45;&gt;0</title>
<path fill="none" stroke="grey" stroke-width="2" d="M3262.6,-71.97C3319.05,-58.15 3396.43,-39.21 3441.74,-28.12"/>
<polygon fill="grey" stroke="grey" stroke-width="2" points="3442.83,-31.46 3451.71,-25.68 3441.17,-24.66 3442.83,-31.46"/>
</g>
<!-- 33 -->
<g id="node34" class="node">
<title>33</title>
<path fill="none" stroke="#80d856" stroke-width="2" stroke-dasharray="5,2" d="M3241.5,-180C3241.5,-180 3144.5,-180 3144.5,-180 3138.5,-180 3132.5,-174 3132.5,-168 3132.5,-168 3132.5,-156 3132.5,-156 3132.5,-150 3138.5,-144 3144.5,-144 3144.5,-144 3241.5,-144 3241.5,-144 3247.5,-144 3253.5,-150 3253.5,-156 3253.5,-156 3253.5,-168 3253.5,-168 3253.5,-174 3247.5,-180 3241.5,-180"/>
<text text-anchor="middle" x="3193" y="-159.5" font-family="sans" font-size="10.00">extract_protein_fasta</text>
</g>
<!-- 33&#45;&gt;32 -->
<g id="edge51" class="edge">
<title>33&#45;&gt;32</title>
<path fill="none" stroke="grey" stroke-width="2" d="M3193,-143.7C3193,-135.98 3193,-126.71 3193,-118.11"/>
<polygon fill="grey" stroke="grey" stroke-width="2" points="3196.5,-118.1 3193,-108.1 3189.5,-118.1 3196.5,-118.1"/>
</g>
<!-- 34 -->
<g id="node35" class="node">
<title>34</title>
<path fill="none" stroke="#ced856" stroke-width="2" stroke-dasharray="5,2" d="M3248,-252C3248,-252 3138,-252 3138,-252 3132,-252 3126,-246 3126,-240 3126,-240 3126,-228 3126,-228 3126,-222 3132,-216 3138,-216 3138,-216 3248,-216 3248,-216 3254,-216 3260,-222 3260,-228 3260,-228 3260,-240 3260,-240 3260,-246 3254,-252 3248,-252"/>
<text text-anchor="middle" x="3193" y="-237" font-family="sans" font-size="10.00">download_protein_fasta</text>
<text text-anchor="middle" x="3193" y="-226" font-family="sans" font-size="10.00">dataset: TemPhD</text>
</g>
<!-- 34&#45;&gt;33 -->
<g id="edge52" class="edge">
<title>34&#45;&gt;33</title>
<path fill="none" stroke="grey" stroke-width="2" d="M3193,-215.7C3193,-207.98 3193,-198.71 3193,-190.11"/>
<polygon fill="grey" stroke="grey" stroke-width="2" points="3196.5,-190.1 3193,-180.1 3189.5,-190.1 3196.5,-190.1"/>
</g>
<!-- 35 -->
<g id="node36" class="node">
<title>35</title>
<path fill="none" stroke="#568ad8" stroke-width="2" stroke-dasharray="5,2" d="M3458.5,-108C3458.5,-108 3309.5,-108 3309.5,-108 3303.5,-108 3297.5,-102 3297.5,-96 3297.5,-96 3297.5,-84 3297.5,-84 3297.5,-78 3303.5,-72 3309.5,-72 3309.5,-72 3458.5,-72 3458.5,-72 3464.5,-72 3470.5,-78 3470.5,-84 3470.5,-84 3470.5,-96 3470.5,-96 3470.5,-102 3464.5,-108 3458.5,-108"/>
<text text-anchor="middle" x="3384" y="-87.5" font-family="sans" font-size="10.00">merge_protein_fasta_by_source</text>
</g>
<!-- 35&#45;&gt;0 -->
<g id="edge17" class="edge">
<title>35&#45;&gt;0</title>
<path fill="none" stroke="grey" stroke-width="2" d="M3407.48,-71.7C3419.56,-62.8 3434.45,-51.82 3447.52,-42.2"/>
<polygon fill="grey" stroke="grey" stroke-width="2" points="3449.81,-44.85 3455.79,-36.1 3445.66,-39.22 3449.81,-44.85"/>
</g>
<!-- 36 -->
<g id="node37" class="node">
<title>36</title>
<path fill="none" stroke="#80d856" stroke-width="2" stroke-dasharray="5,2" d="M3432.5,-180C3432.5,-180 3335.5,-180 3335.5,-180 3329.5,-180 3323.5,-174 3323.5,-168 3323.5,-168 3323.5,-156 3323.5,-156 3323.5,-150 3329.5,-144 3335.5,-144 3335.5,-144 3432.5,-144 3432.5,-144 3438.5,-144 3444.5,-150 3444.5,-156 3444.5,-156 3444.5,-168 3444.5,-168 3444.5,-174 3438.5,-180 3432.5,-180"/>
<text text-anchor="middle" x="3384" y="-159.5" font-family="sans" font-size="10.00">extract_protein_fasta</text>
</g>
<!-- 36&#45;&gt;35 -->
<g id="edge53" class="edge">
<title>36&#45;&gt;35</title>
<path fill="none" stroke="grey" stroke-width="2" d="M3384,-143.7C3384,-135.98 3384,-126.71 3384,-118.11"/>
<polygon fill="grey" stroke="grey" stroke-width="2" points="3387.5,-118.1 3384,-108.1 3380.5,-118.1 3387.5,-118.1"/>
</g>
<!-- 37 -->
<g id="node38" class="node">
<title>37</title>
<path fill="none" stroke="#ced856" stroke-width="2" stroke-dasharray="5,2" d="M3439,-252C3439,-252 3329,-252 3329,-252 3323,-252 3317,-246 3317,-240 3317,-240 3317,-228 3317,-228 3317,-222 3323,-216 3329,-216 3329,-216 3439,-216 3439,-216 3445,-216 3451,-222 3451,-228 3451,-228 3451,-240 3451,-240 3451,-246 3445,-252 3439,-252"/>
<text text-anchor="middle" x="3384" y="-237" font-family="sans" font-size="10.00">download_protein_fasta</text>
<text text-anchor="middle" x="3384" y="-226" font-family="sans" font-size="10.00">dataset: CHVD</text>
</g>
<!-- 37&#45;&gt;36 -->
<g id="edge54" class="edge">
<title>37&#45;&gt;36</title>
<path fill="none" stroke="grey" stroke-width="2" d="M3384,-215.7C3384,-207.98 3384,-198.71 3384,-190.11"/>
<polygon fill="grey" stroke="grey" stroke-width="2" points="3387.5,-190.1 3384,-180.1 3380.5,-190.1 3387.5,-190.1"/>
</g>
<!-- 38 -->
<g id="node39" class="node">
<title>38</title>
<path fill="none" stroke="#568ad8" stroke-width="2" stroke-dasharray="5,2" d="M3649.5,-108C3649.5,-108 3500.5,-108 3500.5,-108 3494.5,-108 3488.5,-102 3488.5,-96 3488.5,-96 3488.5,-84 3488.5,-84 3488.5,-78 3494.5,-72 3500.5,-72 3500.5,-72 3649.5,-72 3649.5,-72 3655.5,-72 3661.5,-78 3661.5,-84 3661.5,-84 3661.5,-96 3661.5,-96 3661.5,-102 3655.5,-108 3649.5,-108"/>
<text text-anchor="middle" x="3575" y="-87.5" font-family="sans" font-size="10.00">merge_protein_fasta_by_source</text>
</g>
<!-- 38&#45;&gt;0 -->
<g id="edge18" class="edge">
<title>38&#45;&gt;0</title>
<path fill="none" stroke="grey" stroke-width="2" d="M3551.27,-71.7C3539.06,-62.8 3524.01,-51.82 3510.82,-42.2"/>
<polygon fill="grey" stroke="grey" stroke-width="2" points="3512.6,-39.17 3502.46,-36.1 3508.48,-44.82 3512.6,-39.17"/>
</g>
<!-- 39 -->
<g id="node40" class="node">
<title>39</title>
<path fill="none" stroke="#80d856" stroke-width="2" stroke-dasharray="5,2" d="M3623.5,-180C3623.5,-180 3526.5,-180 3526.5,-180 3520.5,-180 3514.5,-174 3514.5,-168 3514.5,-168 3514.5,-156 3514.5,-156 3514.5,-150 3520.5,-144 3526.5,-144 3526.5,-144 3623.5,-144 3623.5,-144 3629.5,-144 3635.5,-150 3635.5,-156 3635.5,-156 3635.5,-168 3635.5,-168 3635.5,-174 3629.5,-180 3623.5,-180"/>
<text text-anchor="middle" x="3575" y="-159.5" font-family="sans" font-size="10.00">extract_protein_fasta</text>
</g>
<!-- 39&#45;&gt;38 -->
<g id="edge55" class="edge">
<title>39&#45;&gt;38</title>
<path fill="none" stroke="grey" stroke-width="2" d="M3575,-143.7C3575,-135.98 3575,-126.71 3575,-118.11"/>
<polygon fill="grey" stroke="grey" stroke-width="2" points="3578.5,-118.1 3575,-108.1 3571.5,-118.1 3578.5,-118.1"/>
</g>
<!-- 40 -->
<g id="node41" class="node">
<title>40</title>
<path fill="none" stroke="#ced856" stroke-width="2" stroke-dasharray="5,2" d="M3630,-252C3630,-252 3520,-252 3520,-252 3514,-252 3508,-246 3508,-240 3508,-240 3508,-228 3508,-228 3508,-222 3514,-216 3520,-216 3520,-216 3630,-216 3630,-216 3636,-216 3642,-222 3642,-228 3642,-228 3642,-240 3642,-240 3642,-246 3636,-252 3630,-252"/>
<text text-anchor="middle" x="3575" y="-237" font-family="sans" font-size="10.00">download_protein_fasta</text>
<text text-anchor="middle" x="3575" y="-226" font-family="sans" font-size="10.00">dataset: IGVD</text>
</g>
<!-- 40&#45;&gt;39 -->
<g id="edge56" class="edge">
<title>40&#45;&gt;39</title>
<path fill="none" stroke="grey" stroke-width="2" d="M3575,-215.7C3575,-207.98 3575,-198.71 3575,-190.11"/>
<polygon fill="grey" stroke="grey" stroke-width="2" points="3578.5,-190.1 3575,-180.1 3571.5,-190.1 3578.5,-190.1"/>
</g>
<!-- 41 -->
<g id="node42" class="node">
<title>41</title>
<path fill="none" stroke="#568ad8" stroke-width="2" stroke-dasharray="5,2" d="M3840.5,-108C3840.5,-108 3691.5,-108 3691.5,-108 3685.5,-108 3679.5,-102 3679.5,-96 3679.5,-96 3679.5,-84 3679.5,-84 3679.5,-78 3685.5,-72 3691.5,-72 3691.5,-72 3840.5,-72 3840.5,-72 3846.5,-72 3852.5,-78 3852.5,-84 3852.5,-84 3852.5,-96 3852.5,-96 3852.5,-102 3846.5,-108 3840.5,-108"/>
<text text-anchor="middle" x="3766" y="-87.5" font-family="sans" font-size="10.00">merge_protein_fasta_by_source</text>
</g>
<!-- 41&#45;&gt;0 -->
<g id="edge19" class="edge">
<title>41&#45;&gt;0</title>
<path fill="none" stroke="grey" stroke-width="2" d="M3696.16,-71.97C3639.36,-58.11 3561.43,-39.11 3516.02,-28.03"/>
<polygon fill="grey" stroke="grey" stroke-width="2" points="3516.57,-24.56 3506.03,-25.59 3514.91,-31.36 3516.57,-24.56"/>
</g>
<!-- 42 -->
<g id="node43" class="node">
<title>42</title>
<path fill="none" stroke="#80d856" stroke-width="2" stroke-dasharray="5,2" d="M3814.5,-180C3814.5,-180 3717.5,-180 3717.5,-180 3711.5,-180 3705.5,-174 3705.5,-168 3705.5,-168 3705.5,-156 3705.5,-156 3705.5,-150 3711.5,-144 3717.5,-144 3717.5,-144 3814.5,-144 3814.5,-144 3820.5,-144 3826.5,-150 3826.5,-156 3826.5,-156 3826.5,-168 3826.5,-168 3826.5,-174 3820.5,-180 3814.5,-180"/>
<text text-anchor="middle" x="3766" y="-159.5" font-family="sans" font-size="10.00">extract_protein_fasta</text>
</g>
<!-- 42&#45;&gt;41 -->
<g id="edge57" class="edge">
<title>42&#45;&gt;41</title>
<path fill="none" stroke="grey" stroke-width="2" d="M3766,-143.7C3766,-135.98 3766,-126.71 3766,-118.11"/>
<polygon fill="grey" stroke="grey" stroke-width="2" points="3769.5,-118.1 3766,-108.1 3762.5,-118.1 3769.5,-118.1"/>
</g>
<!-- 43 -->
<g id="node44" class="node">
<title>43</title>
<path fill="none" stroke="#ced856" stroke-width="2" stroke-dasharray="5,2" d="M3821,-252C3821,-252 3711,-252 3711,-252 3705,-252 3699,-246 3699,-240 3699,-240 3699,-228 3699,-228 3699,-222 3705,-216 3711,-216 3711,-216 3821,-216 3821,-216 3827,-216 3833,-222 3833,-228 3833,-228 3833,-240 3833,-240 3833,-246 3827,-252 3821,-252"/>
<text text-anchor="middle" x="3766" y="-237" font-family="sans" font-size="10.00">download_protein_fasta</text>
<text text-anchor="middle" x="3766" y="-226" font-family="sans" font-size="10.00">dataset: GOV2</text>
</g>
<!-- 43&#45;&gt;42 -->
<g id="edge58" class="edge">
<title>43&#45;&gt;42</title>
<path fill="none" stroke="grey" stroke-width="2" d="M3766,-215.7C3766,-207.98 3766,-198.71 3766,-190.11"/>
<polygon fill="grey" stroke="grey" stroke-width="2" points="3769.5,-190.1 3766,-180.1 3762.5,-190.1 3769.5,-190.1"/>
</g>
<!-- 44 -->
<g id="node45" class="node">
<title>44</title>
<path fill="none" stroke="#568ad8" stroke-width="2" stroke-dasharray="5,2" d="M4031.5,-108C4031.5,-108 3882.5,-108 3882.5,-108 3876.5,-108 3870.5,-102 3870.5,-96 3870.5,-96 3870.5,-84 3870.5,-84 3870.5,-78 3876.5,-72 3882.5,-72 3882.5,-72 4031.5,-72 4031.5,-72 4037.5,-72 4043.5,-78 4043.5,-84 4043.5,-84 4043.5,-96 4043.5,-96 4043.5,-102 4037.5,-108 4031.5,-108"/>
<text text-anchor="middle" x="3957" y="-87.5" font-family="sans" font-size="10.00">merge_protein_fasta_by_source</text>
</g>
<!-- 44&#45;&gt;0 -->
<g id="edge20" class="edge">
<title>44&#45;&gt;0</title>
<path fill="none" stroke="grey" stroke-width="2" d="M3870.42,-73.51C3867.24,-72.99 3864.09,-72.49 3861,-72 3735.13,-52.13 3585.28,-32.51 3516.68,-23.75"/>
<polygon fill="grey" stroke="grey" stroke-width="2" points="3516.74,-20.23 3506.38,-22.44 3515.86,-27.18 3516.74,-20.23"/>
</g>
<!-- 45 -->
<g id="node46" class="node">
<title>45</title>
<path fill="none" stroke="#80d856" stroke-width="2" stroke-dasharray="5,2" d="M4005.5,-180C4005.5,-180 3908.5,-180 3908.5,-180 3902.5,-180 3896.5,-174 3896.5,-168 3896.5,-168 3896.5,-156 3896.5,-156 3896.5,-150 3902.5,-144 3908.5,-144 3908.5,-144 4005.5,-144 4005.5,-144 4011.5,-144 4017.5,-150 4017.5,-156 4017.5,-156 4017.5,-168 4017.5,-168 4017.5,-174 4011.5,-180 4005.5,-180"/>
<text text-anchor="middle" x="3957" y="-159.5" font-family="sans" font-size="10.00">extract_protein_fasta</text>
</g>
<!-- 45&#45;&gt;44 -->
<g id="edge59" class="edge">
<title>45&#45;&gt;44</title>
<path fill="none" stroke="grey" stroke-width="2" d="M3957,-143.7C3957,-135.98 3957,-126.71 3957,-118.11"/>
<polygon fill="grey" stroke="grey" stroke-width="2" points="3960.5,-118.1 3957,-108.1 3953.5,-118.1 3960.5,-118.1"/>
</g>
<!-- 46 -->
<g id="node47" class="node">
<title>46</title>
<path fill="none" stroke="#ced856" stroke-width="2" stroke-dasharray="5,2" d="M4012,-252C4012,-252 3902,-252 3902,-252 3896,-252 3890,-246 3890,-240 3890,-240 3890,-228 3890,-228 3890,-222 3896,-216 3902,-216 3902,-216 4012,-216 4012,-216 4018,-216 4024,-222 4024,-228 4024,-228 4024,-240 4024,-240 4024,-246 4018,-252 4012,-252"/>
<text text-anchor="middle" x="3957" y="-237" font-family="sans" font-size="10.00">download_protein_fasta</text>
<text text-anchor="middle" x="3957" y="-226" font-family="sans" font-size="10.00">dataset: STV</text>
</g>
<!-- 46&#45;&gt;45 -->
<g id="edge60" class="edge">
<title>46&#45;&gt;45</title>
<path fill="none" stroke="grey" stroke-width="2" d="M3957,-215.7C3957,-207.98 3957,-198.71 3957,-190.11"/>
<polygon fill="grey" stroke="grey" stroke-width="2" points="3960.5,-190.1 3957,-180.1 3953.5,-190.1 3960.5,-190.1"/>
</g>
<!-- 47 -->
<g id="node48" class="node">
<title>47</title>
<path fill="none" stroke="#56d89a" stroke-width="2" stroke-dasharray="5,2" d="M4218,-108C4218,-108 4074,-108 4074,-108 4068,-108 4062,-102 4062,-96 4062,-96 4062,-84 4062,-84 4062,-78 4068,-72 4074,-72 4074,-72 4218,-72 4218,-72 4224,-72 4230,-78 4230,-84 4230,-84 4230,-96 4230,-96 4230,-102 4224,-108 4218,-108"/>
<text text-anchor="middle" x="4146" y="-87.5" font-family="sans" font-size="10.00">merge_phage_fasta_by_source</text>
</g>
<!-- 47&#45;&gt;0 -->
<g id="edge21" class="edge">
<title>47&#45;&gt;0</title>
<path fill="none" stroke="grey" stroke-width="2" d="M4061.76,-73.4C4058.47,-72.91 4055.2,-72.44 4052,-72 3850.85,-44.56 3608.01,-27.29 3516.39,-21.33"/>
<polygon fill="grey" stroke="grey" stroke-width="2" points="3516.44,-17.83 3506.24,-20.68 3515.99,-24.81 3516.44,-17.83"/>
</g>
<!-- 48 -->
<g id="node49" class="node">
<title>48</title>
<path fill="none" stroke="#97d856" stroke-width="2" stroke-dasharray="5,2" d="M4192,-180C4192,-180 4100,-180 4100,-180 4094,-180 4088,-174 4088,-168 4088,-168 4088,-156 4088,-156 4088,-150 4094,-144 4100,-144 4100,-144 4192,-144 4192,-144 4198,-144 4204,-150 4204,-156 4204,-156 4204,-168 4204,-168 4204,-174 4198,-180 4192,-180"/>
<text text-anchor="middle" x="4146" y="-159.5" font-family="sans" font-size="10.00">extract_phage_fasta</text>
</g>
<!-- 48&#45;&gt;47 -->
<g id="edge61" class="edge">
<title>48&#45;&gt;47</title>
<path fill="none" stroke="grey" stroke-width="2" d="M4146,-143.7C4146,-135.98 4146,-126.71 4146,-118.11"/>
<polygon fill="grey" stroke="grey" stroke-width="2" points="4149.5,-118.1 4146,-108.1 4142.5,-118.1 4149.5,-118.1"/>
</g>
<!-- 49 -->
<g id="node50" class="node">
<title>49</title>
<path fill="none" stroke="#d8c356" stroke-width="2" stroke-dasharray="5,2" d="M4198.5,-252C4198.5,-252 4093.5,-252 4093.5,-252 4087.5,-252 4081.5,-246 4081.5,-240 4081.5,-240 4081.5,-228 4081.5,-228 4081.5,-222 4087.5,-216 4093.5,-216 4093.5,-216 4198.5,-216 4198.5,-216 4204.5,-216 4210.5,-222 4210.5,-228 4210.5,-228 4210.5,-240 4210.5,-240 4210.5,-246 4204.5,-252 4198.5,-252"/>
<text text-anchor="middle" x="4146" y="-237" font-family="sans" font-size="10.00">download_phage_fasta</text>
<text text-anchor="middle" x="4146" y="-226" font-family="sans" font-size="10.00">dataset: Genbank</text>
</g>
<!-- 49&#45;&gt;48 -->
<g id="edge62" class="edge">
<title>49&#45;&gt;48</title>
<path fill="none" stroke="grey" stroke-width="2" d="M4146,-215.7C4146,-207.98 4146,-198.71 4146,-190.11"/>
<polygon fill="grey" stroke="grey" stroke-width="2" points="4149.5,-190.1 4146,-180.1 4142.5,-190.1 4149.5,-190.1"/>
</g>
<!-- 50 -->
<g id="node51" class="node">
<title>50</title>
<path fill="none" stroke="#56d89a" stroke-width="2" stroke-dasharray="5,2" d="M4404,-108C4404,-108 4260,-108 4260,-108 4254,-108 4248,-102 4248,-96 4248,-96 4248,-84 4248,-84 4248,-78 4254,-72 4260,-72 4260,-72 4404,-72 4404,-72 4410,-72 4416,-78 4416,-84 4416,-84 4416,-96 4416,-96 4416,-102 4410,-108 4404,-108"/>
<text text-anchor="middle" x="4332" y="-87.5" font-family="sans" font-size="10.00">merge_phage_fasta_by_source</text>
</g>
<!-- 50&#45;&gt;0 -->
<g id="edge22" class="edge">
<title>50&#45;&gt;0</title>
<path fill="none" stroke="grey" stroke-width="2" d="M4247.92,-73.2C4244.91,-72.77 4241.93,-72.37 4239,-72 3962.77,-37.23 3626.98,-23.81 3516.33,-20.13"/>
<polygon fill="grey" stroke="grey" stroke-width="2" points="3516.14,-16.63 3506.03,-19.8 3515.91,-23.62 3516.14,-16.63"/>
</g>
<!-- 51 -->
<g id="node52" class="node">
<title>51</title>
<path fill="none" stroke="#97d856" stroke-width="2" stroke-dasharray="5,2" d="M4378,-180C4378,-180 4286,-180 4286,-180 4280,-180 4274,-174 4274,-168 4274,-168 4274,-156 4274,-156 4274,-150 4280,-144 4286,-144 4286,-144 4378,-144 4378,-144 4384,-144 4390,-150 4390,-156 4390,-156 4390,-168 4390,-168 4390,-174 4384,-180 4378,-180"/>
<text text-anchor="middle" x="4332" y="-159.5" font-family="sans" font-size="10.00">extract_phage_fasta</text>
</g>
<!-- 51&#45;&gt;50 -->
<g id="edge63" class="edge">
<title>51&#45;&gt;50</title>
<path fill="none" stroke="grey" stroke-width="2" d="M4332,-143.7C4332,-135.98 4332,-126.71 4332,-118.11"/>
<polygon fill="grey" stroke="grey" stroke-width="2" points="4335.5,-118.1 4332,-108.1 4328.5,-118.1 4335.5,-118.1"/>
</g>
<!-- 52 -->
<g id="node53" class="node">
<title>52</title>
<path fill="none" stroke="#d8c356" stroke-width="2" stroke-dasharray="5,2" d="M4384.5,-252C4384.5,-252 4279.5,-252 4279.5,-252 4273.5,-252 4267.5,-246 4267.5,-240 4267.5,-240 4267.5,-228 4267.5,-228 4267.5,-222 4273.5,-216 4279.5,-216 4279.5,-216 4384.5,-216 4384.5,-216 4390.5,-216 4396.5,-222 4396.5,-228 4396.5,-228 4396.5,-240 4396.5,-240 4396.5,-246 4390.5,-252 4384.5,-252"/>
<text text-anchor="middle" x="4332" y="-237" font-family="sans" font-size="10.00">download_phage_fasta</text>
<text text-anchor="middle" x="4332" y="-226" font-family="sans" font-size="10.00">dataset: RefSeq</text>
</g>
<!-- 52&#45;&gt;51 -->
<g id="edge64" class="edge">
<title>52&#45;&gt;51</title>
<path fill="none" stroke="grey" stroke-width="2" d="M4332,-215.7C4332,-207.98 4332,-198.71 4332,-190.11"/>
<polygon fill="grey" stroke="grey" stroke-width="2" points="4335.5,-190.1 4332,-180.1 4328.5,-190.1 4335.5,-190.1"/>
</g>
<!-- 53 -->
<g id="node54" class="node">
<title>53</title>
<path fill="none" stroke="#56d89a" stroke-width="2" stroke-dasharray="5,2" d="M4590,-108C4590,-108 4446,-108 4446,-108 4440,-108 4434,-102 4434,-96 4434,-96 4434,-84 4434,-84 4434,-78 4440,-72 4446,-72 4446,-72 4590,-72 4590,-72 4596,-72 4602,-78 4602,-84 4602,-84 4602,-96 4602,-96 4602,-102 4596,-108 4590,-108"/>
<text text-anchor="middle" x="4518" y="-87.5" font-family="sans" font-size="10.00">merge_phage_fasta_by_source</text>
</g>
<!-- 53&#45;&gt;0 -->
<g id="edge23" class="edge">
<title>53&#45;&gt;0</title>
<path fill="none" stroke="grey" stroke-width="2" d="M4433.92,-73.15C4430.91,-72.73 4427.93,-72.35 4425,-72 4073.09,-30.14 3643.49,-21.2 3516.21,-19.42"/>
<polygon fill="grey" stroke="grey" stroke-width="2" points="3516.25,-15.92 3506.2,-19.28 3516.15,-22.92 3516.25,-15.92"/>
</g>
<!-- 54 -->
<g id="node55" class="node">
<title>54</title>
<path fill="none" stroke="#97d856" stroke-width="2" stroke-dasharray="5,2" d="M4564,-180C4564,-180 4472,-180 4472,-180 4466,-180 4460,-174 4460,-168 4460,-168 4460,-156 4460,-156 4460,-150 4466,-144 4472,-144 4472,-144 4564,-144 4564,-144 4570,-144 4576,-150 4576,-156 4576,-156 4576,-168 4576,-168 4576,-174 4570,-180 4564,-180"/>
<text text-anchor="middle" x="4518" y="-159.5" font-family="sans" font-size="10.00">extract_phage_fasta</text>
</g>
<!-- 54&#45;&gt;53 -->
<g id="edge65" class="edge">
<title>54&#45;&gt;53</title>
<path fill="none" stroke="grey" stroke-width="2" d="M4518,-143.7C4518,-135.98 4518,-126.71 4518,-118.11"/>
<polygon fill="grey" stroke="grey" stroke-width="2" points="4521.5,-118.1 4518,-108.1 4514.5,-118.1 4521.5,-118.1"/>
</g>
<!-- 55 -->
<g id="node56" class="node">
<title>55</title>
<path fill="none" stroke="#d8c356" stroke-width="2" stroke-dasharray="5,2" d="M4570.5,-252C4570.5,-252 4465.5,-252 4465.5,-252 4459.5,-252 4453.5,-246 4453.5,-240 4453.5,-240 4453.5,-228 4453.5,-228 4453.5,-222 4459.5,-216 4465.5,-216 4465.5,-216 4570.5,-216 4570.5,-216 4576.5,-216 4582.5,-222 4582.5,-228 4582.5,-228 4582.5,-240 4582.5,-240 4582.5,-246 4576.5,-252 4570.5,-252"/>
<text text-anchor="middle" x="4518" y="-237" font-family="sans" font-size="10.00">download_phage_fasta</text>
<text text-anchor="middle" x="4518" y="-226" font-family="sans" font-size="10.00">dataset: DDBJ</text>
</g>
<!-- 55&#45;&gt;54 -->
<g id="edge66" class="edge">
<title>55&#45;&gt;54</title>
<path fill="none" stroke="grey" stroke-width="2" d="M4518,-215.7C4518,-207.98 4518,-198.71 4518,-190.11"/>
<polygon fill="grey" stroke="grey" stroke-width="2" points="4521.5,-190.1 4518,-180.1 4514.5,-190.1 4521.5,-190.1"/>
</g>
<!-- 56 -->
<g id="node57" class="node">
<title>56</title>
<path fill="none" stroke="#56d89a" stroke-width="2" stroke-dasharray="5,2" d="M4776,-108C4776,-108 4632,-108 4632,-108 4626,-108 4620,-102 4620,-96 4620,-96 4620,-84 4620,-84 4620,-78 4626,-72 4632,-72 4632,-72 4776,-72 4776,-72 4782,-72 4788,-78 4788,-84 4788,-84 4788,-96 4788,-96 4788,-102 4782,-108 4776,-108"/>
<text text-anchor="middle" x="4704" y="-87.5" font-family="sans" font-size="10.00">merge_phage_fasta_by_source</text>
</g>
<!-- 56&#45;&gt;0 -->
<g id="edge24" class="edge">
<title>56&#45;&gt;0</title>
<path fill="none" stroke="grey" stroke-width="2" d="M4619.93,-73.11C4616.92,-72.71 4613.94,-72.34 4611,-72 4183.31,-23.12 3659.79,-19.08 3516.67,-18.94"/>
<polygon fill="grey" stroke="grey" stroke-width="2" points="3516.27,-15.44 3506.27,-18.93 3516.27,-22.44 3516.27,-15.44"/>
</g>
<!-- 57 -->
<g id="node58" class="node">
<title>57</title>
<path fill="none" stroke="#97d856" stroke-width="2" stroke-dasharray="5,2" d="M4750,-180C4750,-180 4658,-180 4658,-180 4652,-180 4646,-174 4646,-168 4646,-168 4646,-156 4646,-156 4646,-150 4652,-144 4658,-144 4658,-144 4750,-144 4750,-144 4756,-144 4762,-150 4762,-156 4762,-156 4762,-168 4762,-168 4762,-174 4756,-180 4750,-180"/>
<text text-anchor="middle" x="4704" y="-159.5" font-family="sans" font-size="10.00">extract_phage_fasta</text>
</g>
<!-- 57&#45;&gt;56 -->
<g id="edge67" class="edge">
<title>57&#45;&gt;56</title>
<path fill="none" stroke="grey" stroke-width="2" d="M4704,-143.7C4704,-135.98 4704,-126.71 4704,-118.11"/>
<polygon fill="grey" stroke="grey" stroke-width="2" points="4707.5,-118.1 4704,-108.1 4700.5,-118.1 4707.5,-118.1"/>
</g>
<!-- 58 -->
<g id="node59" class="node">
<title>58</title>
<path fill="none" stroke="#d8c356" stroke-width="2" stroke-dasharray="5,2" d="M4756.5,-252C4756.5,-252 4651.5,-252 4651.5,-252 4645.5,-252 4639.5,-246 4639.5,-240 4639.5,-240 4639.5,-228 4639.5,-228 4639.5,-222 4645.5,-216 4651.5,-216 4651.5,-216 4756.5,-216 4756.5,-216 4762.5,-216 4768.5,-222 4768.5,-228 4768.5,-228 4768.5,-240 4768.5,-240 4768.5,-246 4762.5,-252 4756.5,-252"/>
<text text-anchor="middle" x="4704" y="-237" font-family="sans" font-size="10.00">download_phage_fasta</text>
<text text-anchor="middle" x="4704" y="-226" font-family="sans" font-size="10.00">dataset: EMBL</text>
</g>
<!-- 58&#45;&gt;57 -->
<g id="edge68" class="edge">
<title>58&#45;&gt;57</title>
<path fill="none" stroke="grey" stroke-width="2" d="M4704,-215.7C4704,-207.98 4704,-198.71 4704,-190.11"/>
<polygon fill="grey" stroke="grey" stroke-width="2" points="4707.5,-190.1 4704,-180.1 4700.5,-190.1 4707.5,-190.1"/>
</g>
<!-- 59 -->
<g id="node60" class="node">
<title>59</title>
<path fill="none" stroke="#56d89a" stroke-width="2" stroke-dasharray="5,2" d="M4962,-108C4962,-108 4818,-108 4818,-108 4812,-108 4806,-102 4806,-96 4806,-96 4806,-84 4806,-84 4806,-78 4812,-72 4818,-72 4818,-72 4962,-72 4962,-72 4968,-72 4974,-78 4974,-84 4974,-84 4974,-96 4974,-96 4974,-102 4968,-108 4962,-108"/>
<text text-anchor="middle" x="4890" y="-87.5" font-family="sans" font-size="10.00">merge_phage_fasta_by_source</text>
</g>
<!-- 59&#45;&gt;0 -->
<g id="edge25" class="edge">
<title>59&#45;&gt;0</title>
<path fill="none" stroke="grey" stroke-width="2" d="M4805.93,-73.09C4802.92,-72.69 4799.94,-72.33 4797,-72 4291.94,-15.96 3672.18,-17.25 3516.04,-18.59"/>
<polygon fill="grey" stroke="grey" stroke-width="2" points="3515.99,-15.09 3506.02,-18.68 3516.05,-22.09 3515.99,-15.09"/>
</g>
<!-- 60 -->
<g id="node61" class="node">
<title>60</title>
<path fill="none" stroke="#97d856" stroke-width="2" stroke-dasharray="5,2" d="M4936,-180C4936,-180 4844,-180 4844,-180 4838,-180 4832,-174 4832,-168 4832,-168 4832,-156 4832,-156 4832,-150 4838,-144 4844,-144 4844,-144 4936,-144 4936,-144 4942,-144 4948,-150 4948,-156 4948,-156 4948,-168 4948,-168 4948,-174 4942,-180 4936,-180"/>
<text text-anchor="middle" x="4890" y="-159.5" font-family="sans" font-size="10.00">extract_phage_fasta</text>
</g>
<!-- 60&#45;&gt;59 -->
<g id="edge69" class="edge">
<title>60&#45;&gt;59</title>
<path fill="none" stroke="grey" stroke-width="2" d="M4890,-143.7C4890,-135.98 4890,-126.71 4890,-118.11"/>
<polygon fill="grey" stroke="grey" stroke-width="2" points="4893.5,-118.1 4890,-108.1 4886.5,-118.1 4893.5,-118.1"/>
</g>
<!-- 61 -->
<g id="node62" class="node">
<title>61</title>
<path fill="none" stroke="#d8c356" stroke-width="2" stroke-dasharray="5,2" d="M4942.5,-252C4942.5,-252 4837.5,-252 4837.5,-252 4831.5,-252 4825.5,-246 4825.5,-240 4825.5,-240 4825.5,-228 4825.5,-228 4825.5,-222 4831.5,-216 4837.5,-216 4837.5,-216 4942.5,-216 4942.5,-216 4948.5,-216 4954.5,-222 4954.5,-228 4954.5,-228 4954.5,-240 4954.5,-240 4954.5,-246 4948.5,-252 4942.5,-252"/>
<text text-anchor="middle" x="4890" y="-237" font-family="sans" font-size="10.00">download_phage_fasta</text>
<text text-anchor="middle" x="4890" y="-226" font-family="sans" font-size="10.00">dataset: PhagesDB</text>
</g>
<!-- 61&#45;&gt;60 -->
<g id="edge70" class="edge">
<title>61&#45;&gt;60</title>
<path fill="none" stroke="grey" stroke-width="2" d="M4890,-215.7C4890,-207.98 4890,-198.71 4890,-190.11"/>
<polygon fill="grey" stroke="grey" stroke-width="2" points="4893.5,-190.1 4890,-180.1 4886.5,-190.1 4893.5,-190.1"/>
</g>
<!-- 62 -->
<g id="node63" class="node">
<title>62</title>
<path fill="none" stroke="#56d89a" stroke-width="2" stroke-dasharray="5,2" d="M5148,-108C5148,-108 5004,-108 5004,-108 4998,-108 4992,-102 4992,-96 4992,-96 4992,-84 4992,-84 4992,-78 4998,-72 5004,-72 5004,-72 5148,-72 5148,-72 5154,-72 5160,-78 5160,-84 5160,-84 5160,-96 5160,-96 5160,-102 5154,-108 5148,-108"/>
<text text-anchor="middle" x="5076" y="-87.5" font-family="sans" font-size="10.00">merge_phage_fasta_by_source</text>
</g>
<!-- 62&#45;&gt;0 -->
<g id="edge26" class="edge">
<title>62&#45;&gt;0</title>
<path fill="none" stroke="grey" stroke-width="2" d="M4991.93,-73.07C4988.92,-72.68 4985.94,-72.32 4983,-72 4685.87,-39.78 3718.63,-22.82 3516.31,-19.58"/>
<polygon fill="grey" stroke="grey" stroke-width="2" points="3516.25,-16.08 3506.2,-19.42 3516.14,-23.08 3516.25,-16.08"/>
</g>
<!-- 63 -->
<g id="node64" class="node">
<title>63</title>
<path fill="none" stroke="#97d856" stroke-width="2" stroke-dasharray="5,2" d="M5122,-180C5122,-180 5030,-180 5030,-180 5024,-180 5018,-174 5018,-168 5018,-168 5018,-156 5018,-156 5018,-150 5024,-144 5030,-144 5030,-144 5122,-144 5122,-144 5128,-144 5134,-150 5134,-156 5134,-156 5134,-168 5134,-168 5134,-174 5128,-180 5122,-180"/>
<text text-anchor="middle" x="5076" y="-159.5" font-family="sans" font-size="10.00">extract_phage_fasta</text>
</g>
<!-- 63&#45;&gt;62 -->
<g id="edge71" class="edge">
<title>63&#45;&gt;62</title>
<path fill="none" stroke="grey" stroke-width="2" d="M5076,-143.7C5076,-135.98 5076,-126.71 5076,-118.11"/>
<polygon fill="grey" stroke="grey" stroke-width="2" points="5079.5,-118.1 5076,-108.1 5072.5,-118.1 5079.5,-118.1"/>
</g>
<!-- 64 -->
<g id="node65" class="node">
<title>64</title>
<path fill="none" stroke="#d8c356" stroke-width="2" stroke-dasharray="5,2" d="M5128.5,-252C5128.5,-252 5023.5,-252 5023.5,-252 5017.5,-252 5011.5,-246 5011.5,-240 5011.5,-240 5011.5,-228 5011.5,-228 5011.5,-222 5017.5,-216 5023.5,-216 5023.5,-216 5128.5,-216 5128.5,-216 5134.5,-216 5140.5,-222 5140.5,-228 5140.5,-228 5140.5,-240 5140.5,-240 5140.5,-246 5134.5,-252 5128.5,-252"/>
<text text-anchor="middle" x="5076" y="-237" font-family="sans" font-size="10.00">download_phage_fasta</text>
<text text-anchor="middle" x="5076" y="-226" font-family="sans" font-size="10.00">dataset: GPD</text>
</g>
<!-- 64&#45;&gt;63 -->
<g id="edge72" class="edge">
<title>64&#45;&gt;63</title>
<path fill="none" stroke="grey" stroke-width="2" d="M5076,-215.7C5076,-207.98 5076,-198.71 5076,-190.11"/>
<polygon fill="grey" stroke="grey" stroke-width="2" points="5079.5,-190.1 5076,-180.1 5072.5,-190.1 5079.5,-190.1"/>
</g>
<!-- 65 -->
<g id="node66" class="node">
<title>65</title>
<path fill="none" stroke="#56d89a" stroke-width="2" stroke-dasharray="5,2" d="M5334,-108C5334,-108 5190,-108 5190,-108 5184,-108 5178,-102 5178,-96 5178,-96 5178,-84 5178,-84 5178,-78 5184,-72 5190,-72 5190,-72 5334,-72 5334,-72 5340,-72 5346,-78 5346,-84 5346,-84 5346,-96 5346,-96 5346,-102 5340,-108 5334,-108"/>
<text text-anchor="middle" x="5262" y="-87.5" font-family="sans" font-size="10.00">merge_phage_fasta_by_source</text>
</g>
<!-- 65&#45;&gt;0 -->
<g id="edge27" class="edge">
<title>65&#45;&gt;0</title>
<path fill="none" stroke="grey" stroke-width="2" d="M5177.93,-73.05C5174.92,-72.67 5171.94,-72.31 5169,-72 4832.79,-36.2 3733.22,-21.91 3516.34,-19.41"/>
<polygon fill="grey" stroke="grey" stroke-width="2" points="3516.16,-15.91 3506.12,-19.29 3516.08,-22.91 3516.16,-15.91"/>
</g>
<!-- 66 -->
<g id="node67" class="node">
<title>66</title>
<path fill="none" stroke="#97d856" stroke-width="2" stroke-dasharray="5,2" d="M5308,-180C5308,-180 5216,-180 5216,-180 5210,-180 5204,-174 5204,-168 5204,-168 5204,-156 5204,-156 5204,-150 5210,-144 5216,-144 5216,-144 5308,-144 5308,-144 5314,-144 5320,-150 5320,-156 5320,-156 5320,-168 5320,-168 5320,-174 5314,-180 5308,-180"/>
<text text-anchor="middle" x="5262" y="-159.5" font-family="sans" font-size="10.00">extract_phage_fasta</text>
</g>
<!-- 66&#45;&gt;65 -->
<g id="edge73" class="edge">
<title>66&#45;&gt;65</title>
<path fill="none" stroke="grey" stroke-width="2" d="M5262,-143.7C5262,-135.98 5262,-126.71 5262,-118.11"/>
<polygon fill="grey" stroke="grey" stroke-width="2" points="5265.5,-118.1 5262,-108.1 5258.5,-118.1 5265.5,-118.1"/>
</g>
<!-- 67 -->
<g id="node68" class="node">
<title>67</title>
<path fill="none" stroke="#d8c356" stroke-width="2" stroke-dasharray="5,2" d="M5314.5,-252C5314.5,-252 5209.5,-252 5209.5,-252 5203.5,-252 5197.5,-246 5197.5,-240 5197.5,-240 5197.5,-228 5197.5,-228 5197.5,-222 5203.5,-216 5209.5,-216 5209.5,-216 5314.5,-216 5314.5,-216 5320.5,-216 5326.5,-222 5326.5,-228 5326.5,-228 5326.5,-240 5326.5,-240 5326.5,-246 5320.5,-252 5314.5,-252"/>
<text text-anchor="middle" x="5262" y="-237" font-family="sans" font-size="10.00">download_phage_fasta</text>
<text text-anchor="middle" x="5262" y="-226" font-family="sans" font-size="10.00">dataset: GVD</text>
</g>
<!-- 67&#45;&gt;66 -->
<g id="edge74" class="edge">
<title>67&#45;&gt;66</title>
<path fill="none" stroke="grey" stroke-width="2" d="M5262,-215.7C5262,-207.98 5262,-198.71 5262,-190.11"/>
<polygon fill="grey" stroke="grey" stroke-width="2" points="5265.5,-190.1 5262,-180.1 5258.5,-190.1 5265.5,-190.1"/>
</g>
<!-- 68 -->
<g id="node69" class="node">
<title>68</title>
<path fill="none" stroke="#56d89a" stroke-width="2" stroke-dasharray="5,2" d="M5520,-108C5520,-108 5376,-108 5376,-108 5370,-108 5364,-102 5364,-96 5364,-96 5364,-84 5364,-84 5364,-78 5370,-72 5376,-72 5376,-72 5520,-72 5520,-72 5526,-72 5532,-78 5532,-84 5532,-84 5532,-96 5532,-96 5532,-102 5526,-108 5520,-108"/>
<text text-anchor="middle" x="5448" y="-87.5" font-family="sans" font-size="10.00">merge_phage_fasta_by_source</text>
</g>
<!-- 68&#45;&gt;0 -->
<g id="edge28" class="edge">
<title>68&#45;&gt;0</title>
<path fill="none" stroke="grey" stroke-width="2" d="M5363.93,-73.04C5360.92,-72.66 5357.94,-72.31 5355,-72 4979.6,-32.62 3747,-21.11 3516.36,-19.28"/>
<polygon fill="grey" stroke="grey" stroke-width="2" points="3516.17,-15.78 3506.14,-19.2 3516.12,-22.78 3516.17,-15.78"/>
</g>
<!-- 69 -->
<g id="node70" class="node">
<title>69</title>
<path fill="none" stroke="#97d856" stroke-width="2" stroke-dasharray="5,2" d="M5494,-180C5494,-180 5402,-180 5402,-180 5396,-180 5390,-174 5390,-168 5390,-168 5390,-156 5390,-156 5390,-150 5396,-144 5402,-144 5402,-144 5494,-144 5494,-144 5500,-144 5506,-150 5506,-156 5506,-156 5506,-168 5506,-168 5506,-174 5500,-180 5494,-180"/>
<text text-anchor="middle" x="5448" y="-159.5" font-family="sans" font-size="10.00">extract_phage_fasta</text>
</g>
<!-- 69&#45;&gt;68 -->
<g id="edge75" class="edge">
<title>69&#45;&gt;68</title>
<path fill="none" stroke="grey" stroke-width="2" d="M5448,-143.7C5448,-135.98 5448,-126.71 5448,-118.11"/>
<polygon fill="grey" stroke="grey" stroke-width="2" points="5451.5,-118.1 5448,-108.1 5444.5,-118.1 5451.5,-118.1"/>
</g>
<!-- 70 -->
<g id="node71" class="node">
<title>70</title>
<path fill="none" stroke="#d8c356" stroke-width="2" stroke-dasharray="5,2" d="M5500.5,-252C5500.5,-252 5395.5,-252 5395.5,-252 5389.5,-252 5383.5,-246 5383.5,-240 5383.5,-240 5383.5,-228 5383.5,-228 5383.5,-222 5389.5,-216 5395.5,-216 5395.5,-216 5500.5,-216 5500.5,-216 5506.5,-216 5512.5,-222 5512.5,-228 5512.5,-228 5512.5,-240 5512.5,-240 5512.5,-246 5506.5,-252 5500.5,-252"/>
<text text-anchor="middle" x="5448" y="-237" font-family="sans" font-size="10.00">download_phage_fasta</text>
<text text-anchor="middle" x="5448" y="-226" font-family="sans" font-size="10.00">dataset: MGV</text>
</g>
<!-- 70&#45;&gt;69 -->
<g id="edge76" class="edge">
<title>70&#45;&gt;69</title>
<path fill="none" stroke="grey" stroke-width="2" d="M5448,-215.7C5448,-207.98 5448,-198.71 5448,-190.11"/>
<polygon fill="grey" stroke="grey" stroke-width="2" points="5451.5,-190.1 5448,-180.1 5444.5,-190.1 5451.5,-190.1"/>
</g>
<!-- 71 -->
<g id="node72" class="node">
<title>71</title>
<path fill="none" stroke="#56d89a" stroke-width="2" stroke-dasharray="5,2" d="M5706,-108C5706,-108 5562,-108 5562,-108 5556,-108 5550,-102 5550,-96 5550,-96 5550,-84 5550,-84 5550,-78 5556,-72 5562,-72 5562,-72 5706,-72 5706,-72 5712,-72 5718,-78 5718,-84 5718,-84 5718,-96 5718,-96 5718,-102 5712,-108 5706,-108"/>
<text text-anchor="middle" x="5634" y="-87.5" font-family="sans" font-size="10.00">merge_phage_fasta_by_source</text>
</g>
<!-- 71&#45;&gt;0 -->
<g id="edge29" class="edge">
<title>71&#45;&gt;0</title>
<path fill="none" stroke="grey" stroke-width="2" d="M5549.93,-73.03C5546.92,-72.65 5543.94,-72.3 5541,-72 5126.19,-29.02 3759.33,-20.38 3516.17,-19.17"/>
<polygon fill="grey" stroke="grey" stroke-width="2" points="3516.09,-15.67 3506.07,-19.12 3516.06,-22.67 3516.09,-15.67"/>
</g>
<!-- 72 -->
<g id="node73" class="node">
<title>72</title>
<path fill="none" stroke="#97d856" stroke-width="2" stroke-dasharray="5,2" d="M5680,-180C5680,-180 5588,-180 5588,-180 5582,-180 5576,-174 5576,-168 5576,-168 5576,-156 5576,-156 5576,-150 5582,-144 5588,-144 5588,-144 5680,-144 5680,-144 5686,-144 5692,-150 5692,-156 5692,-156 5692,-168 5692,-168 5692,-174 5686,-180 5680,-180"/>
<text text-anchor="middle" x="5634" y="-159.5" font-family="sans" font-size="10.00">extract_phage_fasta</text>
</g>
<!-- 72&#45;&gt;71 -->
<g id="edge77" class="edge">
<title>72&#45;&gt;71</title>
<path fill="none" stroke="grey" stroke-width="2" d="M5634,-143.7C5634,-135.98 5634,-126.71 5634,-118.11"/>
<polygon fill="grey" stroke="grey" stroke-width="2" points="5637.5,-118.1 5634,-108.1 5630.5,-118.1 5637.5,-118.1"/>
</g>
<!-- 73 -->
<g id="node74" class="node">
<title>73</title>
<path fill="none" stroke="#d8c356" stroke-width="2" stroke-dasharray="5,2" d="M5686.5,-252C5686.5,-252 5581.5,-252 5581.5,-252 5575.5,-252 5569.5,-246 5569.5,-240 5569.5,-240 5569.5,-228 5569.5,-228 5569.5,-222 5575.5,-216 5581.5,-216 5581.5,-216 5686.5,-216 5686.5,-216 5692.5,-216 5698.5,-222 5698.5,-228 5698.5,-228 5698.5,-240 5698.5,-240 5698.5,-246 5692.5,-252 5686.5,-252"/>
<text text-anchor="middle" x="5634" y="-237" font-family="sans" font-size="10.00">download_phage_fasta</text>
<text text-anchor="middle" x="5634" y="-226" font-family="sans" font-size="10.00">dataset: TemPhD</text>
</g>
<!-- 73&#45;&gt;72 -->
<g id="edge78" class="edge">
<title>73&#45;&gt;72</title>
<path fill="none" stroke="grey" stroke-width="2" d="M5634,-215.7C5634,-207.98 5634,-198.71 5634,-190.11"/>
<polygon fill="grey" stroke="grey" stroke-width="2" points="5637.5,-190.1 5634,-180.1 5630.5,-190.1 5637.5,-190.1"/>
</g>
<!-- 74 -->
<g id="node75" class="node">
<title>74</title>
<path fill="none" stroke="#56d89a" stroke-width="2" stroke-dasharray="5,2" d="M5892,-108C5892,-108 5748,-108 5748,-108 5742,-108 5736,-102 5736,-96 5736,-96 5736,-84 5736,-84 5736,-78 5742,-72 5748,-72 5748,-72 5892,-72 5892,-72 5898,-72 5904,-78 5904,-84 5904,-84 5904,-96 5904,-96 5904,-102 5898,-108 5892,-108"/>
<text text-anchor="middle" x="5820" y="-87.5" font-family="sans" font-size="10.00">merge_phage_fasta_by_source</text>
</g>
<!-- 74&#45;&gt;0 -->
<g id="edge30" class="edge">
<title>74&#45;&gt;0</title>
<path fill="none" stroke="grey" stroke-width="2" d="M5735.94,-73.02C5732.92,-72.64 5729.94,-72.3 5727,-72 5273.08,-25.45 3773.66,-19.72 3516.65,-19.08"/>
<polygon fill="grey" stroke="grey" stroke-width="2" points="3516.36,-15.58 3506.35,-19.05 3516.34,-22.58 3516.36,-15.58"/>
</g>
<!-- 75 -->
<g id="node76" class="node">
<title>75</title>
<path fill="none" stroke="#97d856" stroke-width="2" stroke-dasharray="5,2" d="M5866,-180C5866,-180 5774,-180 5774,-180 5768,-180 5762,-174 5762,-168 5762,-168 5762,-156 5762,-156 5762,-150 5768,-144 5774,-144 5774,-144 5866,-144 5866,-144 5872,-144 5878,-150 5878,-156 5878,-156 5878,-168 5878,-168 5878,-174 5872,-180 5866,-180"/>
<text text-anchor="middle" x="5820" y="-159.5" font-family="sans" font-size="10.00">extract_phage_fasta</text>
</g>
<!-- 75&#45;&gt;74 -->
<g id="edge79" class="edge">
<title>75&#45;&gt;74</title>
<path fill="none" stroke="grey" stroke-width="2" d="M5820,-143.7C5820,-135.98 5820,-126.71 5820,-118.11"/>
<polygon fill="grey" stroke="grey" stroke-width="2" points="5823.5,-118.1 5820,-108.1 5816.5,-118.1 5823.5,-118.1"/>
</g>
<!-- 76 -->
<g id="node77" class="node">
<title>76</title>
<path fill="none" stroke="#d8c356" stroke-width="2" stroke-dasharray="5,2" d="M5872.5,-252C5872.5,-252 5767.5,-252 5767.5,-252 5761.5,-252 5755.5,-246 5755.5,-240 5755.5,-240 5755.5,-228 5755.5,-228 5755.5,-222 5761.5,-216 5767.5,-216 5767.5,-216 5872.5,-216 5872.5,-216 5878.5,-216 5884.5,-222 5884.5,-228 5884.5,-228 5884.5,-240 5884.5,-240 5884.5,-246 5878.5,-252 5872.5,-252"/>
<text text-anchor="middle" x="5820" y="-237" font-family="sans" font-size="10.00">download_phage_fasta</text>
<text text-anchor="middle" x="5820" y="-226" font-family="sans" font-size="10.00">dataset: CHVD</text>
</g>
<!-- 76&#45;&gt;75 -->
<g id="edge80" class="edge">
<title>76&#45;&gt;75</title>
<path fill="none" stroke="grey" stroke-width="2" d="M5820,-215.7C5820,-207.98 5820,-198.71 5820,-190.11"/>
<polygon fill="grey" stroke="grey" stroke-width="2" points="5823.5,-190.1 5820,-180.1 5816.5,-190.1 5823.5,-190.1"/>
</g>
<!-- 77 -->
<g id="node78" class="node">
<title>77</title>
<path fill="none" stroke="#56d89a" stroke-width="2" stroke-dasharray="5,2" d="M6078,-108C6078,-108 5934,-108 5934,-108 5928,-108 5922,-102 5922,-96 5922,-96 5922,-84 5922,-84 5922,-78 5928,-72 5934,-72 5934,-72 6078,-72 6078,-72 6084,-72 6090,-78 6090,-84 6090,-84 6090,-96 6090,-96 6090,-102 6084,-108 6078,-108"/>
<text text-anchor="middle" x="6006" y="-87.5" font-family="sans" font-size="10.00">merge_phage_fasta_by_source</text>
</g>
<!-- 77&#45;&gt;0 -->
<g id="edge31" class="edge">
<title>77&#45;&gt;0</title>
<path fill="none" stroke="grey" stroke-width="2" d="M5921.94,-73.01C5918.92,-72.64 5915.94,-72.3 5913,-72 5419.46,-21.84 3784.53,-19.11 3516.36,-19"/>
<polygon fill="grey" stroke="grey" stroke-width="2" points="3516.36,-15.5 3506.35,-19 3516.35,-22.5 3516.36,-15.5"/>
</g>
<!-- 78 -->
<g id="node79" class="node">
<title>78</title>
<path fill="none" stroke="#97d856" stroke-width="2" stroke-dasharray="5,2" d="M6052,-180C6052,-180 5960,-180 5960,-180 5954,-180 5948,-174 5948,-168 5948,-168 5948,-156 5948,-156 5948,-150 5954,-144 5960,-144 5960,-144 6052,-144 6052,-144 6058,-144 6064,-150 6064,-156 6064,-156 6064,-168 6064,-168 6064,-174 6058,-180 6052,-180"/>
<text text-anchor="middle" x="6006" y="-159.5" font-family="sans" font-size="10.00">extract_phage_fasta</text>
</g>
<!-- 78&#45;&gt;77 -->
<g id="edge81" class="edge">
<title>78&#45;&gt;77</title>
<path fill="none" stroke="grey" stroke-width="2" d="M6006,-143.7C6006,-135.98 6006,-126.71 6006,-118.11"/>
<polygon fill="grey" stroke="grey" stroke-width="2" points="6009.5,-118.1 6006,-108.1 6002.5,-118.1 6009.5,-118.1"/>
</g>
<!-- 79 -->
<g id="node80" class="node">
<title>79</title>
<path fill="none" stroke="#d8c356" stroke-width="2" stroke-dasharray="5,2" d="M6058.5,-252C6058.5,-252 5953.5,-252 5953.5,-252 5947.5,-252 5941.5,-246 5941.5,-240 5941.5,-240 5941.5,-228 5941.5,-228 5941.5,-222 5947.5,-216 5953.5,-216 5953.5,-216 6058.5,-216 6058.5,-216 6064.5,-216 6070.5,-222 6070.5,-228 6070.5,-228 6070.5,-240 6070.5,-240 6070.5,-246 6064.5,-252 6058.5,-252"/>
<text text-anchor="middle" x="6006" y="-237" font-family="sans" font-size="10.00">download_phage_fasta</text>
<text text-anchor="middle" x="6006" y="-226" font-family="sans" font-size="10.00">dataset: IGVD</text>
</g>
<!-- 79&#45;&gt;78 -->
<g id="edge82" class="edge">
<title>79&#45;&gt;78</title>
<path fill="none" stroke="grey" stroke-width="2" d="M6006,-215.7C6006,-207.98 6006,-198.71 6006,-190.11"/>
<polygon fill="grey" stroke="grey" stroke-width="2" points="6009.5,-190.1 6006,-180.1 6002.5,-190.1 6009.5,-190.1"/>
</g>
<!-- 80 -->
<g id="node81" class="node">
<title>80</title>
<path fill="none" stroke="#56d89a" stroke-width="2" stroke-dasharray="5,2" d="M6264,-108C6264,-108 6120,-108 6120,-108 6114,-108 6108,-102 6108,-96 6108,-96 6108,-84 6108,-84 6108,-78 6114,-72 6120,-72 6120,-72 6264,-72 6264,-72 6270,-72 6276,-78 6276,-84 6276,-84 6276,-96 6276,-96 6276,-102 6270,-108 6264,-108"/>
<text text-anchor="middle" x="6192" y="-87.5" font-family="sans" font-size="10.00">merge_phage_fasta_by_source</text>
</g>
<!-- 80&#45;&gt;0 -->
<g id="edge32" class="edge">
<title>80&#45;&gt;0</title>
<path fill="none" stroke="grey" stroke-width="2" d="M6107.94,-73.01C6104.93,-72.64 6101.94,-72.3 6099,-72 5565.78,-18.22 3795.01,-18.54 3516.12,-18.93"/>
<polygon fill="grey" stroke="grey" stroke-width="2" points="3516.1,-15.43 3506.11,-18.95 3516.11,-22.43 3516.1,-15.43"/>
</g>
<!-- 81 -->
<g id="node82" class="node">
<title>81</title>
<path fill="none" stroke="#97d856" stroke-width="2" stroke-dasharray="5,2" d="M6238,-180C6238,-180 6146,-180 6146,-180 6140,-180 6134,-174 6134,-168 6134,-168 6134,-156 6134,-156 6134,-150 6140,-144 6146,-144 6146,-144 6238,-144 6238,-144 6244,-144 6250,-150 6250,-156 6250,-156 6250,-168 6250,-168 6250,-174 6244,-180 6238,-180"/>
<text text-anchor="middle" x="6192" y="-159.5" font-family="sans" font-size="10.00">extract_phage_fasta</text>
</g>
<!-- 81&#45;&gt;80 -->
<g id="edge83" class="edge">
<title>81&#45;&gt;80</title>
<path fill="none" stroke="grey" stroke-width="2" d="M6192,-143.7C6192,-135.98 6192,-126.71 6192,-118.11"/>
<polygon fill="grey" stroke="grey" stroke-width="2" points="6195.5,-118.1 6192,-108.1 6188.5,-118.1 6195.5,-118.1"/>
</g>
<!-- 82 -->
<g id="node83" class="node">
<title>82</title>
<path fill="none" stroke="#d8c356" stroke-width="2" stroke-dasharray="5,2" d="M6244.5,-252C6244.5,-252 6139.5,-252 6139.5,-252 6133.5,-252 6127.5,-246 6127.5,-240 6127.5,-240 6127.5,-228 6127.5,-228 6127.5,-222 6133.5,-216 6139.5,-216 6139.5,-216 6244.5,-216 6244.5,-216 6250.5,-216 6256.5,-222 6256.5,-228 6256.5,-228 6256.5,-240 6256.5,-240 6256.5,-246 6250.5,-252 6244.5,-252"/>
<text text-anchor="middle" x="6192" y="-237" font-family="sans" font-size="10.00">download_phage_fasta</text>
<text text-anchor="middle" x="6192" y="-226" font-family="sans" font-size="10.00">dataset: IMGVR</text>
</g>
<!-- 82&#45;&gt;81 -->
<g id="edge84" class="edge">
<title>82&#45;&gt;81</title>
<path fill="none" stroke="grey" stroke-width="2" d="M6192,-215.7C6192,-207.98 6192,-198.71 6192,-190.11"/>
<polygon fill="grey" stroke="grey" stroke-width="2" points="6195.5,-190.1 6192,-180.1 6188.5,-190.1 6195.5,-190.1"/>
</g>
<!-- 83 -->
<g id="node84" class="node">
<title>83</title>
<path fill="none" stroke="#56d89a" stroke-width="2" stroke-dasharray="5,2" d="M6450,-108C6450,-108 6306,-108 6306,-108 6300,-108 6294,-102 6294,-96 6294,-96 6294,-84 6294,-84 6294,-78 6300,-72 6306,-72 6306,-72 6450,-72 6450,-72 6456,-72 6462,-78 6462,-84 6462,-84 6462,-96 6462,-96 6462,-102 6456,-108 6450,-108"/>
<text text-anchor="middle" x="6378" y="-87.5" font-family="sans" font-size="10.00">merge_phage_fasta_by_source</text>
</g>
<!-- 83&#45;&gt;0 -->
<g id="edge33" class="edge">
<title>83&#45;&gt;0</title>
<path fill="none" stroke="grey" stroke-width="2" d="M6293.94,-73C6290.93,-72.63 6287.94,-72.29 6285,-72 5712.41,-14.64 3807.49,-18.01 3516.44,-18.87"/>
<polygon fill="grey" stroke="grey" stroke-width="2" points="3516.01,-15.37 3506.02,-18.9 3516.03,-22.37 3516.01,-15.37"/>
</g>
<!-- 84 -->
<g id="node85" class="node">
<title>84</title>
<path fill="none" stroke="#97d856" stroke-width="2" stroke-dasharray="5,2" d="M6424,-180C6424,-180 6332,-180 6332,-180 6326,-180 6320,-174 6320,-168 6320,-168 6320,-156 6320,-156 6320,-150 6326,-144 6332,-144 6332,-144 6424,-144 6424,-144 6430,-144 6436,-150 6436,-156 6436,-156 6436,-168 6436,-168 6436,-174 6430,-180 6424,-180"/>
<text text-anchor="middle" x="6378" y="-159.5" font-family="sans" font-size="10.00">extract_phage_fasta</text>
</g>
<!-- 84&#45;&gt;83 -->
<g id="edge85" class="edge">
<title>84&#45;&gt;83</title>
<path fill="none" stroke="grey" stroke-width="2" d="M6378,-143.7C6378,-135.98 6378,-126.71 6378,-118.11"/>
<polygon fill="grey" stroke="grey" stroke-width="2" points="6381.5,-118.1 6378,-108.1 6374.5,-118.1 6381.5,-118.1"/>
</g>
<!-- 85 -->
<g id="node86" class="node">
<title>85</title>
<path fill="none" stroke="#d8c356" stroke-width="2" stroke-dasharray="5,2" d="M6430.5,-252C6430.5,-252 6325.5,-252 6325.5,-252 6319.5,-252 6313.5,-246 6313.5,-240 6313.5,-240 6313.5,-228 6313.5,-228 6313.5,-222 6319.5,-216 6325.5,-216 6325.5,-216 6430.5,-216 6430.5,-216 6436.5,-216 6442.5,-222 6442.5,-228 6442.5,-228 6442.5,-240 6442.5,-240 6442.5,-246 6436.5,-252 6430.5,-252"/>
<text text-anchor="middle" x="6378" y="-237" font-family="sans" font-size="10.00">download_phage_fasta</text>
<text text-anchor="middle" x="6378" y="-226" font-family="sans" font-size="10.00">dataset: GOV2</text>
</g>
<!-- 85&#45;&gt;84 -->
<g id="edge86" class="edge">
<title>85&#45;&gt;84</title>
<path fill="none" stroke="grey" stroke-width="2" d="M6378,-215.7C6378,-207.98 6378,-198.71 6378,-190.11"/>
<polygon fill="grey" stroke="grey" stroke-width="2" points="6381.5,-190.1 6378,-180.1 6374.5,-190.1 6381.5,-190.1"/>
</g>
<!-- 86 -->
<g id="node87" class="node">
<title>86</title>
<path fill="none" stroke="#56d89a" stroke-width="2" stroke-dasharray="5,2" d="M6636,-108C6636,-108 6492,-108 6492,-108 6486,-108 6480,-102 6480,-96 6480,-96 6480,-84 6480,-84 6480,-78 6486,-72 6492,-72 6492,-72 6636,-72 6636,-72 6642,-72 6648,-78 6648,-84 6648,-84 6648,-96 6648,-96 6648,-102 6642,-108 6636,-108"/>
<text text-anchor="middle" x="6564" y="-87.5" font-family="sans" font-size="10.00">merge_phage_fasta_by_source</text>
</g>
<!-- 86&#45;&gt;0 -->
<g id="edge34" class="edge">
<title>86&#45;&gt;0</title>
<path fill="none" stroke="grey" stroke-width="2" d="M6479.94,-73C6476.93,-72.63 6473.94,-72.29 6471,-72 6163.34,-41.36 3840.8,-21.88 3516.54,-19.29"/>
<polygon fill="grey" stroke="grey" stroke-width="2" points="3516.3,-15.79 3506.27,-19.21 3516.25,-22.79 3516.3,-15.79"/>
</g>
<!-- 87 -->
<g id="node88" class="node">
<title>87</title>
<path fill="none" stroke="#97d856" stroke-width="2" stroke-dasharray="5,2" d="M6610,-180C6610,-180 6518,-180 6518,-180 6512,-180 6506,-174 6506,-168 6506,-168 6506,-156 6506,-156 6506,-150 6512,-144 6518,-144 6518,-144 6610,-144 6610,-144 6616,-144 6622,-150 6622,-156 6622,-156 6622,-168 6622,-168 6622,-174 6616,-180 6610,-180"/>
<text text-anchor="middle" x="6564" y="-159.5" font-family="sans" font-size="10.00">extract_phage_fasta</text>
</g>
<!-- 87&#45;&gt;86 -->
<g id="edge87" class="edge">
<title>87&#45;&gt;86</title>
<path fill="none" stroke="grey" stroke-width="2" d="M6564,-143.7C6564,-135.98 6564,-126.71 6564,-118.11"/>
<polygon fill="grey" stroke="grey" stroke-width="2" points="6567.5,-118.1 6564,-108.1 6560.5,-118.1 6567.5,-118.1"/>
</g>
<!-- 88 -->
<g id="node89" class="node">
<title>88</title>
<path fill="none" stroke="#d8c356" stroke-width="2" stroke-dasharray="5,2" d="M6616.5,-252C6616.5,-252 6511.5,-252 6511.5,-252 6505.5,-252 6499.5,-246 6499.5,-240 6499.5,-240 6499.5,-228 6499.5,-228 6499.5,-222 6505.5,-216 6511.5,-216 6511.5,-216 6616.5,-216 6616.5,-216 6622.5,-216 6628.5,-222 6628.5,-228 6628.5,-228 6628.5,-240 6628.5,-240 6628.5,-246 6622.5,-252 6616.5,-252"/>
<text text-anchor="middle" x="6564" y="-237" font-family="sans" font-size="10.00">download_phage_fasta</text>
<text text-anchor="middle" x="6564" y="-226" font-family="sans" font-size="10.00">dataset: STV</text>
</g>
<!-- 88&#45;&gt;87 -->
<g id="edge88" class="edge">
<title>88&#45;&gt;87</title>
<path fill="none" stroke="grey" stroke-width="2" d="M6564,-215.7C6564,-207.98 6564,-198.71 6564,-190.11"/>
<polygon fill="grey" stroke="grey" stroke-width="2" points="6567.5,-190.1 6564,-180.1 6560.5,-190.1 6567.5,-190.1"/>
</g>
</g>
</svg>
